solid 
facet normal 0.0 0.0 -1.0
outer loop
vertex -7.11445302539 -7.35336599589 0.0
vertex -7.16047737129 -7.33786543125 0.0
vertex -7.20478084262 -7.31797296164 0.0
endloop
endfacet
facet normal 0.0 -0.0 -1.0
outer loop
vertex -5.59296241479 -7.78474793177 0.0
vertex -5.44936939513 -6.78604364438 0.0
vertex -5.58471641903 -7.78665423268 0.0
endloop
endfacet
facet normal 0.0 0.0 -1.0
outer loop
vertex -7.11445302539 -7.35336599589 0.0
vertex -7.20478084262 -7.31797296164 0.0
vertex -7.47394265552 -6.93640775937 0.0
endloop
endfacet
facet normal 0.0 0.0 -1.0
outer loop
vertex -5.59296241479 -7.78474793177 0.0
vertex -7.11445302539 -7.35336599589 0.0
vertex -6.52444867986 -6.48123086417 0.0
endloop
endfacet
facet normal 0.0 0.0 -1.0
outer loop
vertex -7.38663988579 -7.1605410668 0.0
vertex -7.41267353944 -7.1195440328 0.0
vertex -7.35675173326 -7.19881907951 0.0
endloop
endfacet
facet normal 0.0 0.0 -1.0
outer loop
vertex -7.32329104761 -7.23401695494 0.0
vertex -7.35675173326 -7.19881907951 0.0
vertex -7.28657349803 -7.26580263524 0.0
endloop
endfacet
facet normal 0.0 0.0 -1.0
outer loop
vertex -7.20478084262 -7.31797296164 0.0
vertex -7.24694547904 -7.29387625327 0.0
vertex -7.28657349803 -7.26580263524 0.0
endloop
endfacet
facet normal -0.0 -0.0 -1.0
outer loop
vertex -7.41267353944 -7.1195440328 0.0
vertex -7.28657349803 -7.26580263524 0.0
vertex -7.35675173326 -7.19881907951 0.0
endloop
endfacet
facet normal -0.0 -0.0 -1.0
outer loop
vertex -7.41267353944 -7.1195440328 0.0
vertex -7.20478084262 -7.31797296164 0.0
vertex -7.28657349803 -7.26580263524 0.0
endloop
endfacet
facet normal 0.0 0.0 -1.0
outer loop
vertex -5.5608260272 -7.79217718912 0.0
vertex -5.57661004401 -7.78908674442 0.0
vertex -5.58471641903 -7.78665423268 0.0
endloop
endfacet
facet normal -0.0 0.0 -1.0
outer loop
vertex -5.46352743832 -7.8031296958 0.0
vertex -5.47961108553 -7.80317794205 0.0
vertex -5.48803625832 -7.80237364564 0.0
endloop
endfacet
facet normal 0.0 0.0 -1.0
outer loop
vertex -5.46352743832 -7.8031296958 0.0
vertex -5.48803625832 -7.80237364564 0.0
vertex -5.51244576384 -7.80004342904 0.0
endloop
endfacet
facet normal 0.0 0.0 -1.0
outer loop
vertex -5.5608260272 -7.79217718912 0.0
vertex -5.44936939513 -6.78604364438 0.0
vertex -5.36596168649 -7.79488974009 0.0
endloop
endfacet
facet normal 0.0 -0.0 -1.0
outer loop
vertex -5.46352743832 -7.8031296958 0.0
vertex -5.43900707007 -7.80305614184 0.0
vertex -5.44745136597 -7.80362561184 0.0
endloop
endfacet
facet normal 0.0 -0.0 -1.0
outer loop
vertex -5.51244576384 -7.80004342904 0.0
vertex -5.41454216087 -7.80140626696 0.0
vertex -5.46352743832 -7.8031296958 0.0
endloop
endfacet
facet normal 0.0 0.0 -1.0
outer loop
vertex -5.53676246129 -7.79688873503 0.0
vertex -5.54515560049 -7.79579986241 0.0
vertex -5.5608260272 -7.79217718912 0.0
endloop
endfacet
facet normal 0.0 0.0 -1.0
outer loop
vertex -5.51244576384 -7.80004342904 0.0
vertex -5.53676246129 -7.79688873503 0.0
vertex -5.5608260272 -7.79217718912 0.0
endloop
endfacet
facet normal -0.0 -0.0 -1.0
outer loop
vertex -5.51244576384 -7.80004342904 0.0
vertex -5.48803625832 -7.80237364564 0.0
vertex -5.49649571044 -7.80211268775 0.0
endloop
endfacet
facet normal -0.0 -0.0 -1.0
outer loop
vertex -5.53676246129 -7.79688873503 0.0
vertex -5.51244576384 -7.80004342904 0.0
vertex -5.52845669284 -7.79851496987 0.0
endloop
endfacet
facet normal -0.0 0.0 -1.0
outer loop
vertex -5.36596168649 -7.79488974009 0.0
vertex -5.51244576384 -7.80004342904 0.0
vertex -5.5608260272 -7.79217718912 0.0
endloop
endfacet
facet normal 0.0 0.0 -1.0
outer loop
vertex -5.5608260272 -7.79217718912 0.0
vertex -5.58471641903 -7.78665423268 0.0
vertex -5.44936939513 -6.78604364438 0.0
endloop
endfacet
facet normal 0.0 0.0 -1.0
outer loop
vertex -5.41454216087 -7.80140626696 0.0
vertex -5.43900707007 -7.80305614184 0.0
vertex -5.46352743832 -7.8031296958 0.0
endloop
endfacet
facet normal -0.0 0.0 -1.0
outer loop
vertex -9.32544843105 7.56450436724 0.0
vertex -9.33251327266 7.46516405619 0.0
vertex -9.33146037088 7.51501054908 0.0
endloop
endfacet
facet normal 0.0 -0.0 -1.0
outer loop
vertex -9.31453723066 7.6131533874 0.0
vertex -9.29883526113 7.66047388623 0.0
vertex -9.32544843105 7.56450436724 0.0
endloop
endfacet
facet normal 0.0 0.0 -1.0
outer loop
vertex -9.32859666726 7.4154605185 0.0
vertex -9.32544843105 7.56450436724 0.0
vertex -9.27849864913 7.70599535005 0.0
endloop
endfacet
facet normal 0.0 -0.0 -1.0
outer loop
vertex -9.33251327266 7.46516405619 0.0
vertex -9.32544843105 7.56450436724 0.0
vertex -9.32859666726 7.4154605185 0.0
endloop
endfacet
facet normal 0.0 -0.0 -1.0
outer loop
vertex -9.25372960415 7.74926515323 0.0
vertex -9.15549594309 7.8613995729 0.0
vertex -9.27849864913 7.70599535005 0.0
endloop
endfacet
facet normal 0.0 0.0 -1.0
outer loop
vertex -9.32544843105 7.56450436724 0.0
vertex -9.29883526113 7.66047388623 0.0
vertex -9.27849864913 7.70599535005 0.0
endloop
endfacet
facet normal 0.0 -0.0 -1.0
outer loop
vertex -9.1919209656 7.82735549571 0.0
vertex -9.15549594309 7.8613995729 0.0
vertex -9.22477440792 7.78985305867 0.0
endloop
endfacet
facet normal 0.0 0.0 -1.0
outer loop
vertex -9.25372960415 7.74926515323 0.0
vertex -9.22477440792 7.78985305867 0.0
vertex -9.15549594309 7.8613995729 0.0
endloop
endfacet
facet normal 0.0 -0.0 -1.0
outer loop
vertex -9.15549594309 7.8613995729 0.0
vertex -9.07341178336 7.91779638229 0.0
vertex -9.27849864913 7.70599535005 0.0
endloop
endfacet
facet normal -0.0 0.0 -1.0
outer loop
vertex -9.07341178336 7.91779638229 0.0
vertex -9.32859666726 7.4154605185 0.0
vertex -9.27849864913 7.70599535005 0.0
endloop
endfacet
facet normal 0.0 0.0 -1.0
outer loop
vertex -7.45223362132 -7.03096197277 0.0
vertex -7.46538683848 -6.9842126327 0.0
vertex -7.47394265552 -6.93640775937 0.0
endloop
endfacet
facet normal 0.0 0.0 -1.0
outer loop
vertex -7.4346070919 -7.07621474483 0.0
vertex -7.45223362132 -7.03096197277 0.0
vertex -7.47394265552 -6.93640775937 0.0
endloop
endfacet
facet normal 0.0 0.0 -1.0
outer loop
vertex -7.4346070919 -7.07621474483 0.0
vertex -7.47394265552 -6.93640775937 0.0
vertex -7.20478084262 -7.31797296164 0.0
endloop
endfacet
facet normal -0.0 0.0 -1.0
outer loop
vertex -5.44936939513 -6.78604364438 0.0
vertex -5.59296241479 -7.78474793177 0.0
vertex -6.52444867986 -6.48123086417 0.0
endloop
endfacet
facet normal 0.0 0.0 -1.0
outer loop
vertex -7.41267353944 -7.1195440328 0.0
vertex -7.4346070919 -7.07621474483 0.0
vertex -7.20478084262 -7.31797296164 0.0
endloop
endfacet
facet normal 0.0 -0.0 -1.0
outer loop
vertex -7.47394265552 -6.93640775937 0.0
vertex -6.52444867986 -6.48123086417 0.0
vertex -7.11445302539 -7.35336599589 0.0
endloop
endfacet
facet normal 0.0 -0.0 -1.0
outer loop
vertex -9.02856881926 7.93958835391 0.0
vertex -8.98177850592 7.95680602025 0.0
vertex -9.07341178336 7.91779638229 0.0
endloop
endfacet
facet normal 0.0 0.0 -1.0
outer loop
vertex -9.15549594309 7.8613995729 0.0
vertex -9.11586151899 7.89164678571 0.0
vertex -9.07341178336 7.91779638229 0.0
endloop
endfacet
facet normal 0.0 0.0 -1.0
outer loop
vertex -9.32859666726 7.4154605185 0.0
vertex -9.07341178336 7.91779638229 0.0
vertex -8.98177850592 7.95680602025 0.0
endloop
endfacet
facet normal 0.0 0.0 -1.0
outer loop
vertex -9.32859666726 7.4154605185 0.0
vertex -8.98177850592 7.95680602025 0.0
vertex -8.28305522533 7.12739335004 0.0
endloop
endfacet
facet normal -0.0 0.0 -1.0
outer loop
vertex -4.6697694235 9.3035252998 0.0
vertex -8.28305522533 7.12739335004 0.0
vertex -8.98177850592 7.95680602025 0.0
endloop
endfacet
facet normal 0.0 -0.0 -1.0
outer loop
vertex -8.28305522533 7.12739335004 0.0
vertex -6.52444867986 -6.48123086417 0.0
vertex -7.47394265552 -6.93640775937 0.0
endloop
endfacet
facet normal 0.0 0.0 -1.0
outer loop
vertex -7.47394265552 -6.93640775937 0.0
vertex -9.32859666726 7.4154605185 0.0
vertex -8.28305522533 7.12739335004 0.0
endloop
endfacet
facet normal 0.0 0.0 -1.0
outer loop
vertex -5.41454216087 -7.80140626696 0.0
vertex -5.43054363196 -7.803030754 0.0
vertex -5.43900707007 -7.80305614184 0.0
endloop
endfacet
facet normal 0.0 0.0 -1.0
outer loop
vertex -5.39014707444 -7.79892965081 0.0
vertex -5.39849489093 -7.80032406439 0.0
vertex -5.41454216087 -7.80140626696 0.0
endloop
endfacet
facet normal 0.0 0.0 -1.0
outer loop
vertex -5.36596168649 -7.79488974009 0.0
vertex -5.38172687854 -7.79807482321 0.0
vertex -5.39014707444 -7.79892965081 0.0
endloop
endfacet
facet normal 0.0 -0.0 -1.0
outer loop
vertex -5.41454216087 -7.80140626696 0.0
vertex -5.36596168649 -7.79488974009 0.0
vertex -5.39014707444 -7.79892965081 0.0
endloop
endfacet
facet normal 0.0 -0.0 -1.0
outer loop
vertex -5.44936939513 -6.78604364438 0.0
vertex -5.3419268199 -7.79003391292 0.0
vertex -5.36596168649 -7.79488974009 0.0
endloop
endfacet
facet normal -0.0 0.0 -1.0
outer loop
vertex 3.40333964685 -4.54031250655 0.0
vertex -5.3336309573 -7.78835787802 0.0
vertex -5.44936939513 -6.78604364438 0.0
endloop
endfacet
facet normal -0.0 0.0 -1.0
outer loop
vertex -5.3336309573 -7.78835787802 0.0
vertex -5.3419268199 -7.79003391292 0.0
vertex -5.44936939513 -6.78604364438 0.0
endloop
endfacet
facet normal -0.0 0.0 -1.0
outer loop
vertex 3.93408153708 -5.43734979379 0.0
vertex -5.3336309573 -7.78835787802 0.0
vertex 3.40333964685 -4.54031250655 0.0
endloop
endfacet
facet normal -0.0 0.0 -1.0
outer loop
vertex 4.29437946768 -5.08106280607 0.0
vertex 3.93408153708 -5.43734979379 0.0
vertex 3.40333964685 -4.54031250655 0.0
endloop
endfacet
facet normal -0.0 0.0 -1.0
outer loop
vertex -5.35009776294 -7.79223984111 0.0
vertex -5.36596168649 -7.79488974009 0.0
vertex -5.3419268199 -7.79003391292 0.0
endloop
endfacet
facet normal 0.0 0.0 -1.0
outer loop
vertex -8.28305522533 7.12739335004 0.0
vertex -4.6697694235 9.3035252998 0.0
vertex -4.43876547922 8.32803532883 0.0
endloop
endfacet
facet normal -0.0 0.0 -1.0
outer loop
vertex 4.02485747968 -5.40472246021 0.0
vertex 3.98025816737 -5.42323033826 0.0
vertex 4.10767890801 -5.35527121492 0.0
endloop
endfacet
facet normal -0.0 0.0 -1.0
outer loop
vertex 4.06746351582 -5.38199877449 0.0
vertex 4.02485747968 -5.40472246021 0.0
vertex 4.10767890801 -5.35527121492 0.0
endloop
endfacet
facet normal 0.0 0.0 -1.0
outer loop
vertex 4.1794632699 -5.2908365966 0.0
vertex 4.14512858493 -5.32478905773 0.0
vertex 4.10767890801 -5.35527121492 0.0
endloop
endfacet
facet normal 0.0 -0.0 -1.0
outer loop
vertex 3.93408153708 -5.43734979379 0.0
vertex 4.29437946768 -5.08106280607 0.0
vertex 4.10767890801 -5.35527121492 0.0
endloop
endfacet
facet normal -0.0 0.0 -1.0
outer loop
vertex 4.1794632699 -5.2908365966 0.0
vertex 4.10767890801 -5.35527121492 0.0
vertex 4.29437946768 -5.08106280607 0.0
endloop
endfacet
facet normal 0.0 0.0 -1.0
outer loop
vertex 4.29437946768 -5.08106280607 0.0
vertex 4.23753880464 -5.21381681398 0.0
vertex 4.1794632699 -5.2908365966 0.0
endloop
endfacet
facet normal -0.0 0.0 -1.0
outer loop
vertex 4.26073800939 -5.17146782217 0.0
vertex 4.23753880464 -5.21381681398 0.0
vertex 4.27974398387 -5.12707848625 0.0
endloop
endfacet
facet normal -0.0 0.0 -1.0
outer loop
vertex 6.8916864116 8.59220847764 0.0
vertex 4.29437946768 -5.08106280607 0.0
vertex 3.40333964685 -4.54031250655 0.0
endloop
endfacet
facet normal -0.0 0.0 -1.0
outer loop
vertex 8.0291687319 8.97923615258 0.0
vertex 4.29437946768 -5.08106280607 0.0
vertex 6.8916864116 8.59220847764 0.0
endloop
endfacet
facet normal -0.0 0.0 -1.0
outer loop
vertex 4.27974398387 -5.12707848625 0.0
vertex 4.23753880464 -5.21381681398 0.0
vertex 4.29437946768 -5.08106280607 0.0
endloop
endfacet
facet normal 0.0 0.0 -1.0
outer loop
vertex 4.23753880464 -5.21381681398 0.0
vertex 4.21036273839 -5.25373049123 0.0
vertex 4.1794632699 -5.2908365966 0.0
endloop
endfacet
facet normal 0.0 0.0 -1.0
outer loop
vertex 4.10767890801 -5.35527121492 0.0
vertex 3.98025816737 -5.42323033826 0.0
vertex 3.93408153708 -5.43734979379 0.0
endloop
endfacet
facet normal 0.0 -0.0 -1.0
outer loop
vertex -4.53236543383 9.32612478085 0.0
vertex 6.8916864116 8.59220847764 0.0
vertex -4.43876547922 8.32803532883 0.0
endloop
endfacet
facet normal 0.0 -0.0 -1.0
outer loop
vertex -4.57880302907 9.32287446961 0.0
vertex -4.53236543383 9.32612478085 0.0
vertex -4.62473707865 9.31531948023 0.0
endloop
endfacet
facet normal 0.0 0.0 -1.0
outer loop
vertex -4.6697694235 9.3035252998 0.0
vertex -4.62473707865 9.31531948023 0.0
vertex -4.53236543383 9.32612478085 0.0
endloop
endfacet
facet normal 0.0 0.0 -1.0
outer loop
vertex 7.5342718647 9.60746233044 0.0
vertex 7.58301929399 9.60622039202 0.0
vertex 8.0291687319 8.97923615258 0.0
endloop
endfacet
facet normal 0.0 -0.0 -1.0
outer loop
vertex -4.53236543383 9.32612478085 0.0
vertex 7.5342718647 9.60746233044 0.0
vertex 6.8916864116 8.59220847764 0.0
endloop
endfacet
facet normal -0.0 -0.0 -1.0
outer loop
vertex 7.852344623 9.50270303249 0.0
vertex 7.88937473815 9.47097568079 0.0
vertex 7.81240003593 9.5306723771 0.0
endloop
endfacet
facet normal -0.0 -0.0 -1.0
outer loop
vertex -4.53236543383 9.32612478085 0.0
vertex -4.43876547922 8.32803532883 0.0
vertex -4.6697694235 9.3035252998 0.0
endloop
endfacet
facet normal -0.0 -0.0 -1.0
outer loop
vertex 7.72531127166 9.57431120694 0.0
vertex 7.88937473815 9.47097568079 0.0
vertex 7.63141391691 9.60023584973 0.0
endloop
endfacet
facet normal 0.0 0.0 -1.0
outer loop
vertex 7.58301929399 9.60622039202 0.0
vertex 7.63141391691 9.60023584973 0.0
vertex 7.88937473815 9.47097568079 0.0
endloop
endfacet
facet normal -0.0 -0.0 -1.0
outer loop
vertex 7.67899543201 9.58956562505 0.0
vertex 7.72531127166 9.57431120694 0.0
vertex 7.63141391691 9.60023584973 0.0
endloop
endfacet
facet normal -0.0 -0.0 -1.0
outer loop
vertex 7.81240003593 9.5306723771 0.0
vertex 7.88937473815 9.47097568079 0.0
vertex 7.72531127166 9.57431120694 0.0
endloop
endfacet
facet normal 0.0 0.0 -1.0
outer loop
vertex 7.81240003593 9.5306723771 0.0
vertex 7.72531127166 9.57431120694 0.0
vertex 7.76992090658 9.55461768653 0.0
endloop
endfacet
facet normal 0.0 0.0 -1.0
outer loop
vertex 8.0416663968 9.17272739365 0.0
vertex 7.58301929399 9.60622039202 0.0
vertex 7.88937473815 9.47097568079 0.0
endloop
endfacet
facet normal -0.0 0.0 -1.0
outer loop
vertex 8.0393743775 9.02691947326 0.0
vertex 8.0291687319 8.97923615258 0.0
vertex 8.0416663968 9.17272739365 0.0
endloop
endfacet
facet normal -0.0 -0.0 -1.0
outer loop
vertex 8.03296453375 9.22070792984 0.0
vertex 8.0416663968 9.17272739365 0.0
vertex 8.01963024749 9.26761263199 0.0
endloop
endfacet
facet normal 0.0 -0.0 -1.0
outer loop
vertex 8.0416663968 9.17272739365 0.0
vertex 8.04565306958 9.1241273863 0.0
vertex 8.0393743775 9.02691947326 0.0
endloop
endfacet
facet normal -0.0 0.0 -1.0
outer loop
vertex 8.04488663318 9.07537016274 0.0
vertex 8.0393743775 9.02691947326 0.0
vertex 8.04565306958 9.1241273863 0.0
endloop
endfacet
facet normal -0.0 -0.0 -1.0
outer loop
vertex 7.92313817252 9.43579209409 0.0
vertex 7.95331378799 9.39748691814 0.0
vertex 7.88937473815 9.47097568079 0.0
endloop
endfacet
facet normal 0.0 0.0 -1.0
outer loop
vertex 7.97961457171 9.35642448945 0.0
vertex 7.88937473815 9.47097568079 0.0
vertex 7.95331378799 9.39748691814 0.0
endloop
endfacet
facet normal -0.0 -0.0 -1.0
outer loop
vertex 8.00179036595 9.31299536991 0.0
vertex 8.01963024749 9.26761263199 0.0
vertex 7.97961457171 9.35642448945 0.0
endloop
endfacet
facet normal 0.0 0.0 -1.0
outer loop
vertex 8.0416663968 9.17272739365 0.0
vertex 7.88937473815 9.47097568079 0.0
vertex 7.97961457171 9.35642448945 0.0
endloop
endfacet
facet normal 0.0 0.0 -1.0
outer loop
vertex 7.97961457171 9.35642448945 0.0
vertex 8.01963024749 9.26761263199 0.0
vertex 8.0416663968 9.17272739365 0.0
endloop
endfacet
facet normal 0.0 0.0 -1.0
outer loop
vertex 8.0291687319 8.97923615258 0.0
vertex 7.58301929399 9.60622039202 0.0
vertex 8.0416663968 9.17272739365 0.0
endloop
endfacet
facet normal 0.0 0.0 -1.0
outer loop
vertex 6.8916864116 8.59220847764 0.0
vertex 7.5342718647 9.60746233044 0.0
vertex 8.0291687319 8.97923615258 0.0
endloop
endfacet
facet normal 0.0 0.0 -1.0
outer loop
vertex -5.41454216087 -7.80140626696 0.0
vertex -5.51244576384 -7.80004342904 0.0
vertex -5.36596168649 -7.79488974009 0.0
endloop
endfacet
facet normal 0.0 0.0 1.0
outer loop
vertex -7.20478084262 -7.31797296164 5.0
vertex -7.16047737129 -7.33786543125 5.0
vertex -7.11445302539 -7.35336599589 5.0
endloop
endfacet
facet normal 0.0 -0.0 1.0
outer loop
vertex -5.58471641903 -7.78665423268 5.0
vertex -5.44936939513 -6.78604364438 5.0
vertex -5.59296241479 -7.78474793177 5.0
endloop
endfacet
facet normal 0.0 0.0 1.0
outer loop
vertex -7.47394265552 -6.93640775937 5.0
vertex -7.20478084262 -7.31797296164 5.0
vertex -7.11445302539 -7.35336599589 5.0
endloop
endfacet
facet normal 0.0 0.0 1.0
outer loop
vertex -6.52444867986 -6.48123086417 5.0
vertex -7.11445302539 -7.35336599589 5.0
vertex -5.59296241479 -7.78474793177 5.0
endloop
endfacet
facet normal 0.0 0.0 1.0
outer loop
vertex -7.35675173326 -7.19881907951 5.0
vertex -7.41267353944 -7.1195440328 5.0
vertex -7.38663988579 -7.1605410668 5.0
endloop
endfacet
facet normal 0.0 0.0 1.0
outer loop
vertex -7.28657349803 -7.26580263524 5.0
vertex -7.35675173326 -7.19881907951 5.0
vertex -7.32329104761 -7.23401695494 5.0
endloop
endfacet
facet normal 0.0 0.0 1.0
outer loop
vertex -7.28657349803 -7.26580263524 5.0
vertex -7.24694547904 -7.29387625327 5.0
vertex -7.20478084262 -7.31797296164 5.0
endloop
endfacet
facet normal -0.0 -0.0 1.0
outer loop
vertex -7.35675173326 -7.19881907951 5.0
vertex -7.28657349803 -7.26580263524 5.0
vertex -7.41267353944 -7.1195440328 5.0
endloop
endfacet
facet normal -0.0 -0.0 1.0
outer loop
vertex -7.28657349803 -7.26580263524 5.0
vertex -7.20478084262 -7.31797296164 5.0
vertex -7.41267353944 -7.1195440328 5.0
endloop
endfacet
facet normal 0.0 0.0 1.0
outer loop
vertex -5.58471641903 -7.78665423268 5.0
vertex -5.57661004401 -7.78908674442 5.0
vertex -5.5608260272 -7.79217718912 5.0
endloop
endfacet
facet normal -0.0 0.0 1.0
outer loop
vertex -5.48803625832 -7.80237364564 5.0
vertex -5.47961108553 -7.80317794205 5.0
vertex -5.46352743832 -7.8031296958 5.0
endloop
endfacet
facet normal 0.0 0.0 1.0
outer loop
vertex -5.51244576384 -7.80004342904 5.0
vertex -5.48803625832 -7.80237364564 5.0
vertex -5.46352743832 -7.8031296958 5.0
endloop
endfacet
facet normal 0.0 0.0 1.0
outer loop
vertex -5.36596168649 -7.79488974009 5.0
vertex -5.44936939513 -6.78604364438 5.0
vertex -5.5608260272 -7.79217718912 5.0
endloop
endfacet
facet normal 0.0 -0.0 1.0
outer loop
vertex -5.44745136597 -7.80362561184 5.0
vertex -5.43900707007 -7.80305614184 5.0
vertex -5.46352743832 -7.8031296958 5.0
endloop
endfacet
facet normal 0.0 -0.0 1.0
outer loop
vertex -5.46352743832 -7.8031296958 5.0
vertex -5.41454216087 -7.80140626696 5.0
vertex -5.51244576384 -7.80004342904 5.0
endloop
endfacet
facet normal 0.0 0.0 1.0
outer loop
vertex -5.5608260272 -7.79217718912 5.0
vertex -5.54515560049 -7.79579986241 5.0
vertex -5.53676246129 -7.79688873503 5.0
endloop
endfacet
facet normal 0.0 0.0 1.0
outer loop
vertex -5.5608260272 -7.79217718912 5.0
vertex -5.53676246129 -7.79688873503 5.0
vertex -5.51244576384 -7.80004342904 5.0
endloop
endfacet
facet normal -0.0 -0.0 1.0
outer loop
vertex -5.49649571044 -7.80211268775 5.0
vertex -5.48803625832 -7.80237364564 5.0
vertex -5.51244576384 -7.80004342904 5.0
endloop
endfacet
facet normal -0.0 -0.0 1.0
outer loop
vertex -5.52845669284 -7.79851496987 5.0
vertex -5.51244576384 -7.80004342904 5.0
vertex -5.53676246129 -7.79688873503 5.0
endloop
endfacet
facet normal -0.0 0.0 1.0
outer loop
vertex -5.5608260272 -7.79217718912 5.0
vertex -5.51244576384 -7.80004342904 5.0
vertex -5.36596168649 -7.79488974009 5.0
endloop
endfacet
facet normal 0.0 0.0 1.0
outer loop
vertex -5.44936939513 -6.78604364438 5.0
vertex -5.58471641903 -7.78665423268 5.0
vertex -5.5608260272 -7.79217718912 5.0
endloop
endfacet
facet normal 0.0 0.0 1.0
outer loop
vertex -5.46352743832 -7.8031296958 5.0
vertex -5.43900707007 -7.80305614184 5.0
vertex -5.41454216087 -7.80140626696 5.0
endloop
endfacet
facet normal -0.0 0.0 1.0
outer loop
vertex -9.33146037088 7.51501054908 5.0
vertex -9.33251327266 7.46516405619 5.0
vertex -9.32544843105 7.56450436724 5.0
endloop
endfacet
facet normal 0.0 -0.0 1.0
outer loop
vertex -9.32544843105 7.56450436724 5.0
vertex -9.29883526113 7.66047388623 5.0
vertex -9.31453723066 7.6131533874 5.0
endloop
endfacet
facet normal 0.0 0.0 1.0
outer loop
vertex -9.27849864913 7.70599535005 5.0
vertex -9.32544843105 7.56450436724 5.0
vertex -9.32859666726 7.4154605185 5.0
endloop
endfacet
facet normal 0.0 -0.0 1.0
outer loop
vertex -9.32859666726 7.4154605185 5.0
vertex -9.32544843105 7.56450436724 5.0
vertex -9.33251327266 7.46516405619 5.0
endloop
endfacet
facet normal 0.0 -0.0 1.0
outer loop
vertex -9.27849864913 7.70599535005 5.0
vertex -9.15549594309 7.8613995729 5.0
vertex -9.25372960415 7.74926515323 5.0
endloop
endfacet
facet normal 0.0 0.0 1.0
outer loop
vertex -9.27849864913 7.70599535005 5.0
vertex -9.29883526113 7.66047388623 5.0
vertex -9.32544843105 7.56450436724 5.0
endloop
endfacet
facet normal 0.0 -0.0 1.0
outer loop
vertex -9.22477440792 7.78985305867 5.0
vertex -9.15549594309 7.8613995729 5.0
vertex -9.1919209656 7.82735549571 5.0
endloop
endfacet
facet normal 0.0 0.0 1.0
outer loop
vertex -9.15549594309 7.8613995729 5.0
vertex -9.22477440792 7.78985305867 5.0
vertex -9.25372960415 7.74926515323 5.0
endloop
endfacet
facet normal 0.0 -0.0 1.0
outer loop
vertex -9.27849864913 7.70599535005 5.0
vertex -9.07341178336 7.91779638229 5.0
vertex -9.15549594309 7.8613995729 5.0
endloop
endfacet
facet normal -0.0 0.0 1.0
outer loop
vertex -9.27849864913 7.70599535005 5.0
vertex -9.32859666726 7.4154605185 5.0
vertex -9.07341178336 7.91779638229 5.0
endloop
endfacet
facet normal 0.0 0.0 1.0
outer loop
vertex -7.47394265552 -6.93640775937 5.0
vertex -7.46538683848 -6.9842126327 5.0
vertex -7.45223362132 -7.03096197277 5.0
endloop
endfacet
facet normal 0.0 0.0 1.0
outer loop
vertex -7.47394265552 -6.93640775937 5.0
vertex -7.45223362132 -7.03096197277 5.0
vertex -7.4346070919 -7.07621474483 5.0
endloop
endfacet
facet normal 0.0 0.0 1.0
outer loop
vertex -7.20478084262 -7.31797296164 5.0
vertex -7.47394265552 -6.93640775937 5.0
vertex -7.4346070919 -7.07621474483 5.0
endloop
endfacet
facet normal -0.0 0.0 1.0
outer loop
vertex -6.52444867986 -6.48123086417 5.0
vertex -5.59296241479 -7.78474793177 5.0
vertex -5.44936939513 -6.78604364438 5.0
endloop
endfacet
facet normal 0.0 0.0 1.0
outer loop
vertex -7.20478084262 -7.31797296164 5.0
vertex -7.4346070919 -7.07621474483 5.0
vertex -7.41267353944 -7.1195440328 5.0
endloop
endfacet
facet normal 0.0 -0.0 1.0
outer loop
vertex -7.11445302539 -7.35336599589 5.0
vertex -6.52444867986 -6.48123086417 5.0
vertex -7.47394265552 -6.93640775937 5.0
endloop
endfacet
facet normal 0.0 -0.0 1.0
outer loop
vertex -9.07341178336 7.91779638229 5.0
vertex -8.98177850592 7.95680602025 5.0
vertex -9.02856881926 7.93958835391 5.0
endloop
endfacet
facet normal 0.0 0.0 1.0
outer loop
vertex -9.07341178336 7.91779638229 5.0
vertex -9.11586151899 7.89164678571 5.0
vertex -9.15549594309 7.8613995729 5.0
endloop
endfacet
facet normal 0.0 0.0 1.0
outer loop
vertex -8.98177850592 7.95680602025 5.0
vertex -9.07341178336 7.91779638229 5.0
vertex -9.32859666726 7.4154605185 5.0
endloop
endfacet
facet normal 0.0 0.0 1.0
outer loop
vertex -8.28305522533 7.12739335004 5.0
vertex -8.98177850592 7.95680602025 5.0
vertex -9.32859666726 7.4154605185 5.0
endloop
endfacet
facet normal -0.0 0.0 1.0
outer loop
vertex -8.98177850592 7.95680602025 5.0
vertex -8.28305522533 7.12739335004 5.0
vertex -4.6697694235 9.3035252998 5.0
endloop
endfacet
facet normal 0.0 -0.0 1.0
outer loop
vertex -7.47394265552 -6.93640775937 5.0
vertex -6.52444867986 -6.48123086417 5.0
vertex -8.28305522533 7.12739335004 5.0
endloop
endfacet
facet normal 0.0 0.0 1.0
outer loop
vertex -8.28305522533 7.12739335004 5.0
vertex -9.32859666726 7.4154605185 5.0
vertex -7.47394265552 -6.93640775937 5.0
endloop
endfacet
facet normal 0.0 0.0 1.0
outer loop
vertex -5.43900707007 -7.80305614184 5.0
vertex -5.43054363196 -7.803030754 5.0
vertex -5.41454216087 -7.80140626696 5.0
endloop
endfacet
facet normal 0.0 0.0 1.0
outer loop
vertex -5.41454216087 -7.80140626696 5.0
vertex -5.39849489093 -7.80032406439 5.0
vertex -5.39014707444 -7.79892965081 5.0
endloop
endfacet
facet normal 0.0 0.0 1.0
outer loop
vertex -5.39014707444 -7.79892965081 5.0
vertex -5.38172687854 -7.79807482321 5.0
vertex -5.36596168649 -7.79488974009 5.0
endloop
endfacet
facet normal 0.0 -0.0 1.0
outer loop
vertex -5.39014707444 -7.79892965081 5.0
vertex -5.36596168649 -7.79488974009 5.0
vertex -5.41454216087 -7.80140626696 5.0
endloop
endfacet
facet normal 0.0 -0.0 1.0
outer loop
vertex -5.36596168649 -7.79488974009 5.0
vertex -5.3419268199 -7.79003391292 5.0
vertex -5.44936939513 -6.78604364438 5.0
endloop
endfacet
facet normal -0.0 0.0 1.0
outer loop
vertex -5.44936939513 -6.78604364438 5.0
vertex -5.3336309573 -7.78835787802 5.0
vertex 3.40333964685 -4.54031250655 5.0
endloop
endfacet
facet normal -0.0 0.0 1.0
outer loop
vertex -5.44936939513 -6.78604364438 5.0
vertex -5.3419268199 -7.79003391292 5.0
vertex -5.3336309573 -7.78835787802 5.0
endloop
endfacet
facet normal -0.0 0.0 1.0
outer loop
vertex 3.40333964685 -4.54031250655 5.0
vertex -5.3336309573 -7.78835787802 5.0
vertex 3.93408153708 -5.43734979379 5.0
endloop
endfacet
facet normal -0.0 0.0 1.0
outer loop
vertex 3.40333964685 -4.54031250655 5.0
vertex 3.93408153708 -5.43734979379 5.0
vertex 4.29437946768 -5.08106280607 5.0
endloop
endfacet
facet normal -0.0 0.0 1.0
outer loop
vertex -5.3419268199 -7.79003391292 5.0
vertex -5.36596168649 -7.79488974009 5.0
vertex -5.35009776294 -7.79223984111 5.0
endloop
endfacet
facet normal 0.0 0.0 1.0
outer loop
vertex -4.43876547922 8.32803532883 5.0
vertex -4.6697694235 9.3035252998 5.0
vertex -8.28305522533 7.12739335004 5.0
endloop
endfacet
facet normal -0.0 0.0 1.0
outer loop
vertex 4.10767890801 -5.35527121492 5.0
vertex 3.98025816737 -5.42323033826 5.0
vertex 4.02485747968 -5.40472246021 5.0
endloop
endfacet
facet normal -0.0 0.0 1.0
outer loop
vertex 4.10767890801 -5.35527121492 5.0
vertex 4.02485747968 -5.40472246021 5.0
vertex 4.06746351582 -5.38199877449 5.0
endloop
endfacet
facet normal 0.0 0.0 1.0
outer loop
vertex 4.10767890801 -5.35527121492 5.0
vertex 4.14512858493 -5.32478905773 5.0
vertex 4.1794632699 -5.2908365966 5.0
endloop
endfacet
facet normal 0.0 -0.0 1.0
outer loop
vertex 4.10767890801 -5.35527121492 5.0
vertex 4.29437946768 -5.08106280607 5.0
vertex 3.93408153708 -5.43734979379 5.0
endloop
endfacet
facet normal -0.0 0.0 1.0
outer loop
vertex 4.29437946768 -5.08106280607 5.0
vertex 4.10767890801 -5.35527121492 5.0
vertex 4.1794632699 -5.2908365966 5.0
endloop
endfacet
facet normal 0.0 0.0 1.0
outer loop
vertex 4.1794632699 -5.2908365966 5.0
vertex 4.23753880464 -5.21381681398 5.0
vertex 4.29437946768 -5.08106280607 5.0
endloop
endfacet
facet normal -0.0 0.0 1.0
outer loop
vertex 4.27974398387 -5.12707848625 5.0
vertex 4.23753880464 -5.21381681398 5.0
vertex 4.26073800939 -5.17146782217 5.0
endloop
endfacet
facet normal -0.0 0.0 1.0
outer loop
vertex 3.40333964685 -4.54031250655 5.0
vertex 4.29437946768 -5.08106280607 5.0
vertex 6.8916864116 8.59220847764 5.0
endloop
endfacet
facet normal -0.0 0.0 1.0
outer loop
vertex 6.8916864116 8.59220847764 5.0
vertex 4.29437946768 -5.08106280607 5.0
vertex 8.0291687319 8.97923615258 5.0
endloop
endfacet
facet normal -0.0 0.0 1.0
outer loop
vertex 4.29437946768 -5.08106280607 5.0
vertex 4.23753880464 -5.21381681398 5.0
vertex 4.27974398387 -5.12707848625 5.0
endloop
endfacet
facet normal 0.0 0.0 1.0
outer loop
vertex 4.1794632699 -5.2908365966 5.0
vertex 4.21036273839 -5.25373049123 5.0
vertex 4.23753880464 -5.21381681398 5.0
endloop
endfacet
facet normal 0.0 0.0 1.0
outer loop
vertex 3.93408153708 -5.43734979379 5.0
vertex 3.98025816737 -5.42323033826 5.0
vertex 4.10767890801 -5.35527121492 5.0
endloop
endfacet
facet normal 0.0 -0.0 1.0
outer loop
vertex -4.43876547922 8.32803532883 5.0
vertex 6.8916864116 8.59220847764 5.0
vertex -4.53236543383 9.32612478085 5.0
endloop
endfacet
facet normal 0.0 -0.0 1.0
outer loop
vertex -4.62473707865 9.31531948023 5.0
vertex -4.53236543383 9.32612478085 5.0
vertex -4.57880302907 9.32287446961 5.0
endloop
endfacet
facet normal 0.0 0.0 1.0
outer loop
vertex -4.53236543383 9.32612478085 5.0
vertex -4.62473707865 9.31531948023 5.0
vertex -4.6697694235 9.3035252998 5.0
endloop
endfacet
facet normal 0.0 0.0 1.0
outer loop
vertex 8.0291687319 8.97923615258 5.0
vertex 7.58301929399 9.60622039202 5.0
vertex 7.5342718647 9.60746233044 5.0
endloop
endfacet
facet normal 0.0 -0.0 1.0
outer loop
vertex 6.8916864116 8.59220847764 5.0
vertex 7.5342718647 9.60746233044 5.0
vertex -4.53236543383 9.32612478085 5.0
endloop
endfacet
facet normal -0.0 -0.0 1.0
outer loop
vertex 7.81240003593 9.5306723771 5.0
vertex 7.88937473815 9.47097568079 5.0
vertex 7.852344623 9.50270303249 5.0
endloop
endfacet
facet normal -0.0 -0.0 1.0
outer loop
vertex -4.6697694235 9.3035252998 5.0
vertex -4.43876547922 8.32803532883 5.0
vertex -4.53236543383 9.32612478085 5.0
endloop
endfacet
facet normal -0.0 -0.0 1.0
outer loop
vertex 7.63141391691 9.60023584973 5.0
vertex 7.88937473815 9.47097568079 5.0
vertex 7.72531127166 9.57431120694 5.0
endloop
endfacet
facet normal 0.0 0.0 1.0
outer loop
vertex 7.88937473815 9.47097568079 5.0
vertex 7.63141391691 9.60023584973 5.0
vertex 7.58301929399 9.60622039202 5.0
endloop
endfacet
facet normal -0.0 -0.0 1.0
outer loop
vertex 7.63141391691 9.60023584973 5.0
vertex 7.72531127166 9.57431120694 5.0
vertex 7.67899543201 9.58956562505 5.0
endloop
endfacet
facet normal -0.0 -0.0 1.0
outer loop
vertex 7.72531127166 9.57431120694 5.0
vertex 7.88937473815 9.47097568079 5.0
vertex 7.81240003593 9.5306723771 5.0
endloop
endfacet
facet normal 0.0 0.0 1.0
outer loop
vertex 7.76992090658 9.55461768653 5.0
vertex 7.72531127166 9.57431120694 5.0
vertex 7.81240003593 9.5306723771 5.0
endloop
endfacet
facet normal 0.0 0.0 1.0
outer loop
vertex 7.88937473815 9.47097568079 5.0
vertex 7.58301929399 9.60622039202 5.0
vertex 8.0416663968 9.17272739365 5.0
endloop
endfacet
facet normal -0.0 0.0 1.0
outer loop
vertex 8.0416663968 9.17272739365 5.0
vertex 8.0291687319 8.97923615258 5.0
vertex 8.0393743775 9.02691947326 5.0
endloop
endfacet
facet normal -0.0 -0.0 1.0
outer loop
vertex 8.01963024749 9.26761263199 5.0
vertex 8.0416663968 9.17272739365 5.0
vertex 8.03296453375 9.22070792984 5.0
endloop
endfacet
facet normal 0.0 -0.0 1.0
outer loop
vertex 8.0393743775 9.02691947326 5.0
vertex 8.04565306958 9.1241273863 5.0
vertex 8.0416663968 9.17272739365 5.0
endloop
endfacet
facet normal -0.0 0.0 1.0
outer loop
vertex 8.04565306958 9.1241273863 5.0
vertex 8.0393743775 9.02691947326 5.0
vertex 8.04488663318 9.07537016274 5.0
endloop
endfacet
facet normal -0.0 -0.0 1.0
outer loop
vertex 7.88937473815 9.47097568079 5.0
vertex 7.95331378799 9.39748691814 5.0
vertex 7.92313817252 9.43579209409 5.0
endloop
endfacet
facet normal 0.0 0.0 1.0
outer loop
vertex 7.95331378799 9.39748691814 5.0
vertex 7.88937473815 9.47097568079 5.0
vertex 7.97961457171 9.35642448945 5.0
endloop
endfacet
facet normal -0.0 -0.0 1.0
outer loop
vertex 7.97961457171 9.35642448945 5.0
vertex 8.01963024749 9.26761263199 5.0
vertex 8.00179036595 9.31299536991 5.0
endloop
endfacet
facet normal 0.0 0.0 1.0
outer loop
vertex 7.97961457171 9.35642448945 5.0
vertex 7.88937473815 9.47097568079 5.0
vertex 8.0416663968 9.17272739365 5.0
endloop
endfacet
facet normal 0.0 0.0 1.0
outer loop
vertex 8.0416663968 9.17272739365 5.0
vertex 8.01963024749 9.26761263199 5.0
vertex 7.97961457171 9.35642448945 5.0
endloop
endfacet
facet normal 0.0 0.0 1.0
outer loop
vertex 8.0416663968 9.17272739365 5.0
vertex 7.58301929399 9.60622039202 5.0
vertex 8.0291687319 8.97923615258 5.0
endloop
endfacet
facet normal 0.0 0.0 1.0
outer loop
vertex 8.0291687319 8.97923615258 5.0
vertex 7.5342718647 9.60746233044 5.0
vertex 6.8916864116 8.59220847764 5.0
endloop
endfacet
facet normal 0.0 0.0 1.0
outer loop
vertex -5.36596168649 -7.79488974009 5.0
vertex -5.51244576384 -7.80004342904 5.0
vertex -5.41454216087 -7.80140626696 5.0
endloop
endfacet
facet normal -0.319174986936 -0.947695799144 0.0
outer loop
vertex -7.11445302539 -7.35336599589 5.0
vertex -7.16047737129 -7.33786543125 5.0
vertex -7.11445302539 -7.35336599589 0.0
endloop
endfacet
facet normal -0.319174986936 -0.947695799144 -0.0
outer loop
vertex -7.11445302539 -7.35336599589 0.0
vertex -7.16047737129 -7.33786543125 5.0
vertex -7.16047737129 -7.33786543125 0.0
endloop
endfacet
facet normal -0.409609512386 -0.912260953545 0.0
outer loop
vertex -7.16047737129 -7.33786543125 5.0
vertex -7.20478084262 -7.31797296164 5.0
vertex -7.16047737129 -7.33786543125 0.0
endloop
endfacet
facet normal -0.409609512386 -0.912260953545 -0.0
outer loop
vertex -7.16047737129 -7.33786543125 0.0
vertex -7.20478084262 -7.31797296164 5.0
vertex -7.20478084262 -7.31797296164 0.0
endloop
endfacet
facet normal -0.496179768721 -0.868219809214 0.0
outer loop
vertex -7.20478084262 -7.31797296164 5.0
vertex -7.24694547904 -7.29387625327 5.0
vertex -7.20478084262 -7.31797296164 0.0
endloop
endfacet
facet normal -0.496179768721 -0.868219809214 -0.0
outer loop
vertex -7.20478084262 -7.31797296164 0.0
vertex -7.24694547904 -7.29387625327 5.0
vertex -7.24694547904 -7.29387625327 0.0
endloop
endfacet
facet normal -0.578069049401 -0.815987851702 0.0
outer loop
vertex -7.24694547904 -7.29387625327 5.0
vertex -7.28657349803 -7.26580263524 5.0
vertex -7.24694547904 -7.29387625327 0.0
endloop
endfacet
facet normal -0.578069049401 -0.815987851702 -0.0
outer loop
vertex -7.24694547904 -7.29387625327 0.0
vertex -7.28657349803 -7.26580263524 5.0
vertex -7.28657349803 -7.26580263524 0.0
endloop
endfacet
facet normal -0.654504808358 -0.756057838949 0.0
outer loop
vertex -7.28657349803 -7.26580263524 5.0
vertex -7.32329104761 -7.23401695494 5.0
vertex -7.28657349803 -7.26580263524 0.0
endloop
endfacet
facet normal -0.654504808358 -0.756057838949 -0.0
outer loop
vertex -7.28657349803 -7.26580263524 0.0
vertex -7.32329104761 -7.23401695494 5.0
vertex -7.32329104761 -7.23401695494 0.0
endloop
endfacet
facet normal -0.724765948221 -0.688995152595 0.0
outer loop
vertex -7.32329104761 -7.23401695494 5.0
vertex -7.35675173326 -7.19881907951 5.0
vertex -7.32329104761 -7.23401695494 0.0
endloop
endfacet
facet normal -0.724765948221 -0.688995152595 -0.0
outer loop
vertex -7.32329104761 -7.23401695494 0.0
vertex -7.35675173326 -7.19881907951 5.0
vertex -7.35675173326 -7.19881907951 0.0
endloop
endfacet
facet normal -0.788189623171 -0.615432464147 0.0
outer loop
vertex -7.35675173326 -7.19881907951 5.0
vertex -7.38663988579 -7.1605410668 5.0
vertex -7.35675173326 -7.19881907951 0.0
endloop
endfacet
facet normal -0.788189623171 -0.615432464147 -0.0
outer loop
vertex -7.35675173326 -7.19881907951 0.0
vertex -7.38663988579 -7.1605410668 5.0
vertex -7.38663988579 -7.1605410668 0.0
endloop
endfacet
facet normal -0.844177492249 -0.536063766338 0.0
outer loop
vertex -7.38663988579 -7.1605410668 5.0
vertex -7.41267353944 -7.1195440328 5.0
vertex -7.38663988579 -7.1605410668 0.0
endloop
endfacet
facet normal -0.844177492249 -0.536063766338 -0.0
outer loop
vertex -7.38663988579 -7.1605410668 0.0
vertex -7.41267353944 -7.1195440328 5.0
vertex -7.41267353944 -7.1195440328 0.0
endloop
endfacet
facet normal -0.892201364125 -0.451637825976 0.0
outer loop
vertex -7.41267353944 -7.1195440328 5.0
vertex -7.4346070919 -7.07621474483 5.0
vertex -7.41267353944 -7.1195440328 0.0
endloop
endfacet
facet normal -0.892201364125 -0.451637825976 -0.0
outer loop
vertex -7.41267353944 -7.1195440328 0.0
vertex -7.4346070919 -7.07621474483 5.0
vertex -7.4346070919 -7.07621474483 0.0
endloop
endfacet
facet normal -0.931808180071 -0.362951120059 0.0
outer loop
vertex -7.4346070919 -7.07621474483 5.0
vertex -7.45223362132 -7.03096197277 5.0
vertex -7.4346070919 -7.07621474483 0.0
endloop
endfacet
facet normal -0.931808180071 -0.362951120059 -0.0
outer loop
vertex -7.4346070919 -7.07621474483 0.0
vertex -7.45223362132 -7.03096197277 5.0
vertex -7.45223362132 -7.03096197277 0.0
endloop
endfacet
facet normal -0.962624288131 -0.270840321778 0.0
outer loop
vertex -7.45223362132 -7.03096197277 5.0
vertex -7.46538683848 -6.9842126327 5.0
vertex -7.45223362132 -7.03096197277 0.0
endloop
endfacet
facet normal -0.962624288131 -0.270840321778 -0.0
outer loop
vertex -7.45223362132 -7.03096197277 0.0
vertex -7.46538683848 -6.9842126327 5.0
vertex -7.46538683848 -6.9842126327 0.0
endloop
endfacet
facet normal -0.984358968164 -0.176174407322 0.0
outer loop
vertex -7.46538683848 -6.9842126327 5.0
vertex -7.47394265552 -6.93640775937 5.0
vertex -7.46538683848 -6.9842126327 0.0
endloop
endfacet
facet normal -0.984358968164 -0.176174407322 -0.0
outer loop
vertex -7.46538683848 -6.9842126327 0.0
vertex -7.47394265552 -6.93640775937 5.0
vertex -7.47394265552 -6.93640775937 0.0
endloop
endfacet
facet normal -0.991753290733 -0.128161656985 0.0
outer loop
vertex -7.47394265552 -6.93640775937 5.0
vertex -9.32859666726 7.4154605185 5.0
vertex -7.47394265552 -6.93640775937 0.0
endloop
endfacet
facet normal -0.991753290733 -0.128161656985 -0.0
outer loop
vertex -7.47394265552 -6.93640775937 0.0
vertex -9.32859666726 7.4154605185 5.0
vertex -9.32859666726 7.4154605185 0.0
endloop
endfacet
facet normal -0.996909716934 -0.0785558163452 0.0
outer loop
vertex -9.32859666726 7.4154605185 5.0
vertex -9.33251327266 7.46516405619 5.0
vertex -9.32859666726 7.4154605185 0.0
endloop
endfacet
facet normal -0.996909716934 -0.0785558163452 -0.0
outer loop
vertex -9.32859666726 7.4154605185 0.0
vertex -9.33251327266 7.46516405619 5.0
vertex -9.33251327266 7.46516405619 0.0
endloop
endfacet
facet normal -0.999776986471 0.0211181752024 0.0
outer loop
vertex -9.33251327266 7.46516405619 5.0
vertex -9.33146037088 7.51501054908 5.0
vertex -9.33251327266 7.46516405619 0.0
endloop
endfacet
facet normal -0.999776986471 0.0211181752024 0.0
outer loop
vertex -9.33251327266 7.46516405619 0.0
vertex -9.33146037088 7.51501054908 5.0
vertex -9.33146037088 7.51501054908 0.0
endloop
endfacet
facet normal -0.992703347633 0.120582186077 0.0
outer loop
vertex -9.33146037088 7.51501054908 5.0
vertex -9.32544843105 7.56450436724 5.0
vertex -9.33146037088 7.51501054908 0.0
endloop
endfacet
facet normal -0.992703347633 0.120582186077 0.0
outer loop
vertex -9.33146037088 7.51501054908 0.0
vertex -9.32544843105 7.56450436724 5.0
vertex -9.32544843105 7.56450436724 0.0
endloop
endfacet
facet normal -0.975759134502 0.218847233103 0.0
outer loop
vertex -9.32544843105 7.56450436724 5.0
vertex -9.31453723066 7.6131533874 5.0
vertex -9.32544843105 7.56450436724 0.0
endloop
endfacet
facet normal -0.975759134502 0.218847233103 0.0
outer loop
vertex -9.32544843105 7.56450436724 0.0
vertex -9.31453723066 7.6131533874 5.0
vertex -9.31453723066 7.6131533874 0.0
endloop
endfacet
facet normal -0.949112825521 0.314936254553 0.0
outer loop
vertex -9.31453723066 7.6131533874 5.0
vertex -9.29883526113 7.66047388623 5.0
vertex -9.31453723066 7.6131533874 0.0
endloop
endfacet
facet normal -0.949112825521 0.314936254553 0.0
outer loop
vertex -9.31453723066 7.6131533874 0.0
vertex -9.29883526113 7.66047388623 5.0
vertex -9.29883526113 7.66047388623 0.0
endloop
endfacet
facet normal -0.913029368293 0.407893825198 0.0
outer loop
vertex -9.29883526113 7.66047388623 5.0
vertex -9.27849864913 7.70599535005 5.0
vertex -9.29883526113 7.66047388623 0.0
endloop
endfacet
facet normal -0.913029368293 0.407893825198 0.0
outer loop
vertex -9.29883526113 7.66047388623 0.0
vertex -9.27849864913 7.70599535005 5.0
vertex -9.27849864913 7.70599535005 0.0
endloop
endfacet
facet normal -0.867867545174 0.496795656215 0.0
outer loop
vertex -9.27849864913 7.70599535005 5.0
vertex -9.25372960415 7.74926515323 5.0
vertex -9.27849864913 7.70599535005 0.0
endloop
endfacet
facet normal -0.867867545174 0.496795656215 0.0
outer loop
vertex -9.27849864913 7.70599535005 0.0
vertex -9.25372960415 7.74926515323 5.0
vertex -9.25372960415 7.74926515323 0.0
endloop
endfacet
facet normal -0.814076405853 0.580757785513 0.0
outer loop
vertex -9.25372960415 7.74926515323 5.0
vertex -9.22477440792 7.78985305867 5.0
vertex -9.25372960415 7.74926515323 0.0
endloop
endfacet
facet normal -0.814076405853 0.580757785513 0.0
outer loop
vertex -9.25372960415 7.74926515323 0.0
vertex -9.22477440792 7.78985305867 5.0
vertex -9.22477440792 7.78985305867 0.0
endloop
endfacet
facet normal -0.752190802397 0.658945367075 0.0
outer loop
vertex -9.22477440792 7.78985305867 5.0
vertex -9.1919209656 7.82735549571 5.0
vertex -9.22477440792 7.78985305867 0.0
endloop
endfacet
facet normal -0.752190802397 0.658945367075 0.0
outer loop
vertex -9.22477440792 7.78985305867 0.0
vertex -9.1919209656 7.82735549571 5.0
vertex -9.1919209656 7.82735549571 0.0
endloop
endfacet
facet normal -0.682826071148 0.73058097194 0.0
outer loop
vertex -9.1919209656 7.82735549571 5.0
vertex -9.15549594309 7.8613995729 5.0
vertex -9.1919209656 7.82735549571 0.0
endloop
endfacet
facet normal -0.682826071148 0.73058097194 0.0
outer loop
vertex -9.1919209656 7.82735549571 0.0
vertex -9.15549594309 7.8613995729 5.0
vertex -9.15549594309 7.8613995729 0.0
endloop
endfacet
facet normal -0.606671914357 0.794952318275 0.0
outer loop
vertex -9.15549594309 7.8613995729 5.0
vertex -9.11586151899 7.89164678571 5.0
vertex -9.15549594309 7.8613995729 0.0
endloop
endfacet
facet normal -0.606671914357 0.794952318275 0.0
outer loop
vertex -9.15549594309 7.8613995729 0.0
vertex -9.11586151899 7.89164678571 5.0
vertex -9.11586151899 7.89164678571 0.0
endloop
endfacet
facet normal -0.524485542386 0.851419353684 0.0
outer loop
vertex -9.11586151899 7.89164678571 5.0
vertex -9.07341178336 7.91779638229 5.0
vertex -9.11586151899 7.89164678571 0.0
endloop
endfacet
facet normal -0.524485542386 0.851419353684 0.0
outer loop
vertex -9.11586151899 7.89164678571 0.0
vertex -9.07341178336 7.91779638229 5.0
vertex -9.07341178336 7.91779638229 0.0
endloop
endfacet
facet normal -0.437084144673 0.89942061933 0.0
outer loop
vertex -9.07341178336 7.91779638229 5.0
vertex -9.02856881926 7.93958835391 5.0
vertex -9.07341178336 7.91779638229 0.0
endloop
endfacet
facet normal -0.437084144673 0.89942061933 0.0
outer loop
vertex -9.07341178336 7.91779638229 0.0
vertex -9.02856881926 7.93958835391 5.0
vertex -9.02856881926 7.93958835391 0.0
endloop
endfacet
facet normal -0.345336764314 0.938478832587 0.0
outer loop
vertex -9.02856881926 7.93958835391 5.0
vertex -8.98177850592 7.95680602025 5.0
vertex -9.02856881926 7.93958835391 0.0
endloop
endfacet
facet normal -0.345336764314 0.938478832587 0.0
outer loop
vertex -9.02856881926 7.93958835391 0.0
vertex -8.98177850592 7.95680602025 5.0
vertex -8.98177850592 7.95680602025 0.0
endloop
endfacet
facet normal -0.298116968049 0.954529346517 0.0
outer loop
vertex -8.98177850592 7.95680602025 5.0
vertex -4.6697694235 9.3035252998 5.0
vertex -8.98177850592 7.95680602025 0.0
endloop
endfacet
facet normal -0.298116968049 0.954529346517 0.0
outer loop
vertex -8.98177850592 7.95680602025 0.0
vertex -4.6697694235 9.3035252998 5.0
vertex -4.6697694235 9.3035252998 0.0
endloop
endfacet
facet normal -0.253359288739 0.967372250382 0.0
outer loop
vertex -4.6697694235 9.3035252998 5.0
vertex -4.62473707865 9.31531948023 5.0
vertex -4.6697694235 9.3035252998 0.0
endloop
endfacet
facet normal -0.253359288739 0.967372250382 0.0
outer loop
vertex -4.6697694235 9.3035252998 0.0
vertex -4.62473707865 9.31531948023 5.0
vertex -4.62473707865 9.31531948023 0.0
endloop
endfacet
facet normal -0.162294171071 0.986742419295 0.0
outer loop
vertex -4.62473707865 9.31531948023 5.0
vertex -4.57880302907 9.32287446961 5.0
vertex -4.62473707865 9.31531948023 0.0
endloop
endfacet
facet normal -0.162294171071 0.986742419295 0.0
outer loop
vertex -4.62473707865 9.31531948023 0.0
vertex -4.57880302907 9.32287446961 5.0
vertex -4.57880302907 9.32287446961 0.0
endloop
endfacet
facet normal -0.0698222779375 0.997559446601 0.0
outer loop
vertex -4.57880302907 9.32287446961 5.0
vertex -4.53236543383 9.32612478085 5.0
vertex -4.57880302907 9.32287446961 0.0
endloop
endfacet
facet normal -0.0698222779375 0.997559446601 0.0
outer loop
vertex -4.57880302907 9.32287446961 0.0
vertex -4.53236543383 9.32612478085 5.0
vertex -4.53236543383 9.32612478085 0.0
endloop
endfacet
facet normal -0.0233089887132 0.999728308614 0.0
outer loop
vertex -4.53236543383 9.32612478085 5.0
vertex 7.5342718647 9.60746233044 5.0
vertex -4.53236543383 9.32612478085 0.0
endloop
endfacet
facet normal -0.0233089887132 0.999728308614 0.0
outer loop
vertex -4.53236543383 9.32612478085 0.0
vertex 7.5342718647 9.60746233044 5.0
vertex 7.5342718647 9.60746233044 0.0
endloop
endfacet
facet normal 0.0254687390794 0.999675619053 0.0
outer loop
vertex 7.5342718647 9.60746233044 5.0
vertex 7.58301929399 9.60622039202 5.0
vertex 7.5342718647 9.60746233044 0.0
endloop
endfacet
facet normal 0.0254687390794 0.999675619053 0.0
outer loop
vertex 7.5342718647 9.60746233044 0.0
vertex 7.58301929399 9.60622039202 5.0
vertex 7.58301929399 9.60622039202 0.0
endloop
endfacet
facet normal 0.122726492498 0.992440531236 0.0
outer loop
vertex 7.58301929399 9.60622039202 5.0
vertex 7.63141391691 9.60023584973 5.0
vertex 7.58301929399 9.60622039202 0.0
endloop
endfacet
facet normal 0.122726492498 0.992440531236 0.0
outer loop
vertex 7.58301929399 9.60622039202 0.0
vertex 7.63141391691 9.60023584973 5.0
vertex 7.63141391691 9.60023584973 0.0
endloop
endfacet
facet normal 0.218816943058 0.975765927582 0.0
outer loop
vertex 7.63141391691 9.60023584973 5.0
vertex 7.67899543201 9.58956562505 5.0
vertex 7.63141391691 9.60023584973 0.0
endloop
endfacet
facet normal 0.218816943058 0.975765927582 0.0
outer loop
vertex 7.63141391691 9.60023584973 0.0
vertex 7.67899543201 9.58956562505 5.0
vertex 7.67899543201 9.58956562505 0.0
endloop
endfacet
facet normal 0.312826134405 0.949810407204 0.0
outer loop
vertex 7.67899543201 9.58956562505 5.0
vertex 7.72531127166 9.57431120694 5.0
vertex 7.67899543201 9.58956562505 0.0
endloop
endfacet
facet normal 0.312826134405 0.949810407204 0.0
outer loop
vertex 7.67899543201 9.58956562505 0.0
vertex 7.72531127166 9.57431120694 5.0
vertex 7.72531127166 9.57431120694 0.0
endloop
endfacet
facet normal 0.403859905909 0.914820843881 0.0
outer loop
vertex 7.72531127166 9.57431120694 5.0
vertex 7.76992090658 9.55461768653 5.0
vertex 7.72531127166 9.57431120694 0.0
endloop
endfacet
facet normal 0.403859905909 0.914820843881 0.0
outer loop
vertex 7.72531127166 9.57431120694 0.0
vertex 7.76992090658 9.55461768653 5.0
vertex 7.76992090658 9.55461768653 0.0
endloop
endfacet
facet normal 0.4910523974 0.871130037944 0.0
outer loop
vertex 7.76992090658 9.55461768653 5.0
vertex 7.81240003593 9.5306723771 5.0
vertex 7.76992090658 9.55461768653 0.0
endloop
endfacet
facet normal 0.4910523974 0.871130037944 0.0
outer loop
vertex 7.76992090658 9.55461768653 0.0
vertex 7.81240003593 9.5306723771 5.0
vertex 7.81240003593 9.5306723771 0.0
endloop
endfacet
facet normal 0.573574284723 0.819153550871 0.0
outer loop
vertex 7.81240003593 9.5306723771 5.0
vertex 7.852344623 9.50270303249 5.0
vertex 7.81240003593 9.5306723771 0.0
endloop
endfacet
facet normal 0.573574284723 0.819153550871 0.0
outer loop
vertex 7.81240003593 9.5306723771 0.0
vertex 7.852344623 9.50270303249 5.0
vertex 7.852344623 9.50270303249 0.0
endloop
endfacet
facet normal 0.650640667789 0.75938575271 0.0
outer loop
vertex 7.852344623 9.50270303249 5.0
vertex 7.88937473815 9.47097568079 5.0
vertex 7.852344623 9.50270303249 0.0
endloop
endfacet
facet normal 0.650640667789 0.75938575271 0.0
outer loop
vertex 7.852344623 9.50270303249 0.0
vertex 7.88937473815 9.47097568079 5.0
vertex 7.88937473815 9.47097568079 0.0
endloop
endfacet
facet normal 0.721518536084 0.692395119919 0.0
outer loop
vertex 7.88937473815 9.47097568079 5.0
vertex 7.92313817252 9.43579209409 5.0
vertex 7.88937473815 9.47097568079 0.0
endloop
endfacet
facet normal 0.721518536084 0.692395119919 0.0
outer loop
vertex 7.88937473815 9.47097568079 0.0
vertex 7.92313817252 9.43579209409 5.0
vertex 7.92313817252 9.43579209409 0.0
endloop
endfacet
facet normal 0.78553374064 0.618818828347 0.0
outer loop
vertex 7.92313817252 9.43579209409 5.0
vertex 7.95331378799 9.39748691814 5.0
vertex 7.92313817252 9.43579209409 0.0
endloop
endfacet
facet normal 0.78553374064 0.618818828347 0.0
outer loop
vertex 7.92313817252 9.43579209409 0.0
vertex 7.95331378799 9.39748691814 5.0
vertex 7.95331378799 9.39748691814 0.0
endloop
endfacet
facet normal 0.842077406145 0.539356692792 0.0
outer loop
vertex 7.95331378799 9.39748691814 5.0
vertex 7.97961457171 9.35642448945 5.0
vertex 7.95331378799 9.39748691814 0.0
endloop
endfacet
facet normal 0.842077406145 0.539356692792 0.0
outer loop
vertex 7.95331378799 9.39748691814 0.0
vertex 7.97961457171 9.35642448945 5.0
vertex 7.97961457171 9.35642448945 0.0
endloop
endfacet
facet normal 0.890611722214 0.454764510768 0.0
outer loop
vertex 7.97961457171 9.35642448945 5.0
vertex 8.00179036595 9.31299536991 5.0
vertex 7.97961457171 9.35642448945 0.0
endloop
endfacet
facet normal 0.890611722214 0.454764510768 0.0
outer loop
vertex 7.97961457171 9.35642448945 0.0
vertex 8.00179036595 9.31299536991 5.0
vertex 8.00179036595 9.31299536991 0.0
endloop
endfacet
facet normal 0.930675058723 0.365846873802 0.0
outer loop
vertex 8.00179036595 9.31299536991 5.0
vertex 8.01963024749 9.26761263199 5.0
vertex 8.00179036595 9.31299536991 0.0
endloop
endfacet
facet normal 0.930675058723 0.365846873802 0.0
outer loop
vertex 8.00179036595 9.31299536991 0.0
vertex 8.01963024749 9.26761263199 5.0
vertex 8.01963024749 9.26761263199 0.0
endloop
endfacet
facet normal 0.961886356567 0.273449514626 0.0
outer loop
vertex 8.01963024749 9.26761263199 5.0
vertex 8.03296453375 9.22070792984 5.0
vertex 8.01963024749 9.26761263199 0.0
endloop
endfacet
facet normal 0.961886356567 0.273449514626 0.0
outer loop
vertex 8.01963024749 9.26761263199 0.0
vertex 8.03296453375 9.22070792984 5.0
vertex 8.03296453375 9.22070792984 0.0
endloop
endfacet
facet normal 0.983948752076 0.178451263062 0.0
outer loop
vertex 8.03296453375 9.22070792984 5.0
vertex 8.0416663968 9.17272739365 5.0
vertex 8.03296453375 9.22070792984 0.0
endloop
endfacet
facet normal 0.983948752076 0.178451263062 0.0
outer loop
vertex 8.03296453375 9.22070792984 0.0
vertex 8.0416663968 9.17272739365 5.0
vertex 8.0416663968 9.17272739365 0.0
endloop
endfacet
facet normal 0.996652400602 0.0817556871038 0.0
outer loop
vertex 8.0416663968 9.17272739365 5.0
vertex 8.04565306958 9.1241273863 5.0
vertex 8.0416663968 9.17272739365 0.0
endloop
endfacet
facet normal 0.996652400602 0.0817556871038 0.0
outer loop
vertex 8.0416663968 9.17272739365 0.0
vertex 8.04565306958 9.1241273863 5.0
vertex 8.04565306958 9.1241273863 0.0
endloop
endfacet
facet normal 0.999876472447 -0.0157175012945 0.0
outer loop
vertex 8.04565306958 9.1241273863 5.0
vertex 8.04488663318 9.07537016274 5.0
vertex 8.04565306958 9.1241273863 0.0
endloop
endfacet
facet normal 0.999876472447 -0.0157175012945 0.0
outer loop
vertex 8.04565306958 9.1241273863 0.0
vertex 8.04488663318 9.07537016274 5.0
vertex 8.04488663318 9.07537016274 0.0
endloop
endfacet
facet normal 0.993590302118 -0.113041193982 0.0
outer loop
vertex 8.04488663318 9.07537016274 5.0
vertex 8.0393743775 9.02691947326 5.0
vertex 8.04488663318 9.07537016274 0.0
endloop
endfacet
facet normal 0.993590302118 -0.113041193982 0.0
outer loop
vertex 8.04488663318 9.07537016274 0.0
vertex 8.0393743775 9.02691947326 5.0
vertex 8.0393743775 9.02691947326 0.0
endloop
endfacet
facet normal 0.977853680003 -0.209289704725 0.0
outer loop
vertex 8.0393743775 9.02691947326 5.0
vertex 8.0291687319 8.97923615258 5.0
vertex 8.0393743775 9.02691947326 0.0
endloop
endfacet
facet normal 0.977853680003 -0.209289704725 0.0
outer loop
vertex 8.0393743775 9.02691947326 0.0
vertex 8.0291687319 8.97923615258 5.0
vertex 8.0291687319 8.97923615258 0.0
endloop
endfacet
facet normal 0.966484745682 -0.256724047107 0.0
outer loop
vertex 8.0291687319 8.97923615258 5.0
vertex 4.29437946768 -5.08106280607 5.0
vertex 8.0291687319 8.97923615258 0.0
endloop
endfacet
facet normal 0.966484745682 -0.256724047107 0.0
outer loop
vertex 8.0291687319 8.97923615258 0.0
vertex 4.29437946768 -5.08106280607 5.0
vertex 4.29437946768 -5.08106280607 0.0
endloop
endfacet
facet normal 0.95296089119 -0.303093285743 0.0
outer loop
vertex 4.29437946768 -5.08106280607 5.0
vertex 4.27974398387 -5.12707848625 5.0
vertex 4.29437946768 -5.08106280607 0.0
endloop
endfacet
facet normal 0.95296089119 -0.303093285743 0.0
outer loop
vertex 4.29437946768 -5.08106280607 0.0
vertex 4.27974398387 -5.12707848625 5.0
vertex 4.27974398387 -5.12707848625 0.0
endloop
endfacet
facet normal 0.919280144292 -0.393603882489 0.0
outer loop
vertex 4.27974398387 -5.12707848625 5.0
vertex 4.26073800939 -5.17146782217 5.0
vertex 4.27974398387 -5.12707848625 0.0
endloop
endfacet
facet normal 0.919280144292 -0.393603882489 0.0
outer loop
vertex 4.27974398387 -5.12707848625 0.0
vertex 4.26073800939 -5.17146782217 5.0
vertex 4.26073800939 -5.17146782217 0.0
endloop
endfacet
facet normal 0.877025675205 -0.480443508679 0.0
outer loop
vertex 4.26073800939 -5.17146782217 5.0
vertex 4.23753880464 -5.21381681398 5.0
vertex 4.26073800939 -5.17146782217 0.0
endloop
endfacet
facet normal 0.877025675205 -0.480443508679 0.0
outer loop
vertex 4.26073800939 -5.17146782217 0.0
vertex 4.23753880464 -5.21381681398 5.0
vertex 4.23753880464 -5.21381681398 0.0
endloop
endfacet
facet normal 0.826591572804 -0.562802249258 0.0
outer loop
vertex 4.23753880464 -5.21381681398 5.0
vertex 4.21036273839 -5.25373049123 5.0
vertex 4.23753880464 -5.21381681398 0.0
endloop
endfacet
facet normal 0.826591572804 -0.562802249258 0.0
outer loop
vertex 4.23753880464 -5.21381681398 0.0
vertex 4.21036273839 -5.25373049123 5.0
vertex 4.21036273839 -5.25373049123 0.0
endloop
endfacet
facet normal 0.768448213814 -0.639911980421 0.0
outer loop
vertex 4.21036273839 -5.25373049123 5.0
vertex 4.1794632699 -5.2908365966 5.0
vertex 4.21036273839 -5.25373049123 0.0
endloop
endfacet
facet normal 0.768448213814 -0.639911980421 0.0
outer loop
vertex 4.21036273839 -5.25373049123 0.0
vertex 4.1794632699 -5.2908365966 5.0
vertex 4.1794632699 -5.2908365966 0.0
endloop
endfacet
facet normal 0.703137875809 -0.71105353357 0.0
outer loop
vertex 4.1794632699 -5.2908365966 5.0
vertex 4.14512858493 -5.32478905773 5.0
vertex 4.1794632699 -5.2908365966 0.0
endloop
endfacet
facet normal 0.703137875809 -0.71105353357 0.0
outer loop
vertex 4.1794632699 -5.2908365966 0.0
vertex 4.14512858493 -5.32478905773 5.0
vertex 4.14512858493 -5.32478905773 0.0
endloop
endfacet
facet normal 0.63126967963 -0.775563402682 0.0
outer loop
vertex 4.14512858493 -5.32478905773 5.0
vertex 4.10767890801 -5.35527121492 5.0
vertex 4.14512858493 -5.32478905773 0.0
endloop
endfacet
facet normal 0.63126967963 -0.775563402682 0.0
outer loop
vertex 4.14512858493 -5.32478905773 0.0
vertex 4.10767890801 -5.35527121492 5.0
vertex 4.10767890801 -5.35527121492 0.0
endloop
endfacet
facet normal 0.553513908381 -0.832839932537 0.0
outer loop
vertex 4.10767890801 -5.35527121492 5.0
vertex 4.06746351582 -5.38199877449 5.0
vertex 4.10767890801 -5.35527121492 0.0
endloop
endfacet
facet normal 0.553513908381 -0.832839932537 0.0
outer loop
vertex 4.10767890801 -5.35527121492 0.0
vertex 4.06746351582 -5.38199877449 5.0
vertex 4.06746351582 -5.38199877449 0.0
endloop
endfacet
facet normal 0.470595755993 -0.882348930096 0.0
outer loop
vertex 4.06746351582 -5.38199877449 5.0
vertex 4.02485747968 -5.40472246021 5.0
vertex 4.06746351582 -5.38199877449 0.0
endloop
endfacet
facet normal 0.470595755993 -0.882348930096 0.0
outer loop
vertex 4.06746351582 -5.38199877449 0.0
vertex 4.02485747968 -5.40472246021 5.0
vertex 4.02485747968 -5.40472246021 0.0
endloop
endfacet
facet normal 0.383288563658 -0.923628646681 0.0
outer loop
vertex 4.02485747968 -5.40472246021 5.0
vertex 3.98025816737 -5.42323033826 5.0
vertex 4.02485747968 -5.40472246021 0.0
endloop
endfacet
facet normal 0.383288563658 -0.923628646681 0.0
outer loop
vertex 4.02485747968 -5.40472246021 0.0
vertex 3.98025816737 -5.42323033826 5.0
vertex 3.98025816737 -5.42323033826 0.0
endloop
endfacet
facet normal 0.292406607217 -0.956294084503 0.0
outer loop
vertex 3.98025816737 -5.42323033826 5.0
vertex 3.93408153708 -5.43734979379 5.0
vertex 3.98025816737 -5.42323033826 0.0
endloop
endfacet
facet normal 0.292406607217 -0.956294084503 0.0
outer loop
vertex 3.98025816737 -5.42323033826 0.0
vertex 3.93408153708 -5.43734979379 5.0
vertex 3.93408153708 -5.43734979379 0.0
endloop
endfacet
facet normal 0.245888884489 -0.969298022532 0.0
outer loop
vertex 3.93408153708 -5.43734979379 5.0
vertex -5.3336309573 -7.78835787802 5.0
vertex 3.93408153708 -5.43734979379 0.0
endloop
endfacet
facet normal 0.245888884489 -0.969298022532 0.0
outer loop
vertex 3.93408153708 -5.43734979379 0.0
vertex -5.3336309573 -7.78835787802 5.0
vertex -5.3336309573 -7.78835787802 0.0
endloop
endfacet
facet normal 0.198031500863 -0.980195656319 0.0
outer loop
vertex -5.3336309573 -7.78835787802 5.0
vertex -5.3419268199 -7.79003391292 5.0
vertex -5.3336309573 -7.78835787802 0.0
endloop
endfacet
facet normal 0.198031500863 -0.980195656319 0.0
outer loop
vertex -5.3336309573 -7.78835787802 0.0
vertex -5.3419268199 -7.79003391292 5.0
vertex -5.3419268199 -7.79003391292 0.0
endloop
endfacet
facet normal 0.260640916765 -0.965435814805 0.0
outer loop
vertex -5.3419268199 -7.79003391292 5.0
vertex -5.35009776294 -7.79223984111 5.0
vertex -5.3419268199 -7.79003391292 0.0
endloop
endfacet
facet normal 0.260640916765 -0.965435814805 0.0
outer loop
vertex -5.3419268199 -7.79003391292 0.0
vertex -5.35009776294 -7.79223984111 5.0
vertex -5.35009776294 -7.79223984111 0.0
endloop
endfacet
facet normal 0.164756601771 -0.98633425479 0.0
outer loop
vertex -5.35009776294 -7.79223984111 5.0
vertex -5.36596168649 -7.79488974009 5.0
vertex -5.35009776294 -7.79223984111 0.0
endloop
endfacet
facet normal 0.164756601771 -0.98633425479 0.0
outer loop
vertex -5.35009776294 -7.79223984111 0.0
vertex -5.36596168649 -7.79488974009 5.0
vertex -5.36596168649 -7.79488974009 0.0
endloop
endfacet
facet normal 0.198031500863 -0.980195656319 0.0
outer loop
vertex -5.36596168649 -7.79488974009 5.0
vertex -5.38172687854 -7.79807482321 5.0
vertex -5.36596168649 -7.79488974009 0.0
endloop
endfacet
facet normal 0.198031500863 -0.980195656319 0.0
outer loop
vertex -5.36596168649 -7.79488974009 0.0
vertex -5.38172687854 -7.79807482321 5.0
vertex -5.38172687854 -7.79807482321 0.0
endloop
endfacet
facet normal 0.101001949863 -0.994886227728 0.0
outer loop
vertex -5.38172687854 -7.79807482321 5.0
vertex -5.39014707444 -7.79892965081 5.0
vertex -5.38172687854 -7.79807482321 0.0
endloop
endfacet
facet normal 0.101001949863 -0.994886227728 0.0
outer loop
vertex -5.38172687854 -7.79807482321 0.0
vertex -5.39014707444 -7.79892965081 5.0
vertex -5.39014707444 -7.79892965081 0.0
endloop
endfacet
facet normal 0.164756601771 -0.98633425479 0.0
outer loop
vertex -5.39014707444 -7.79892965081 5.0
vertex -5.39849489093 -7.80032406439 5.0
vertex -5.39014707444 -7.79892965081 0.0
endloop
endfacet
facet normal 0.164756601771 -0.98633425479 0.0
outer loop
vertex -5.39014707444 -7.79892965081 0.0
vertex -5.39849489093 -7.80032406439 5.0
vertex -5.39849489093 -7.80032406439 0.0
endloop
endfacet
facet normal 0.0672855906377 -0.997733756717 0.0
outer loop
vertex -5.39849489093 -7.80032406439 5.0
vertex -5.41454216087 -7.80140626696 5.0
vertex -5.39849489093 -7.80032406439 0.0
endloop
endfacet
facet normal 0.0672855906377 -0.997733756717 0.0
outer loop
vertex -5.39849489093 -7.80032406439 0.0
vertex -5.41454216087 -7.80140626696 5.0
vertex -5.41454216087 -7.80140626696 0.0
endloop
endfacet
facet normal 0.101001949863 -0.994886227728 0.0
outer loop
vertex -5.41454216087 -7.80140626696 5.0
vertex -5.43054363196 -7.803030754 5.0
vertex -5.41454216087 -7.80140626696 0.0
endloop
endfacet
facet normal 0.101001949863 -0.994886227728 0.0
outer loop
vertex -5.41454216087 -7.80140626696 0.0
vertex -5.43054363196 -7.803030754 5.0
vertex -5.43054363196 -7.803030754 0.0
endloop
endfacet
facet normal 0.00299969487264 -0.999995500905 0.0
outer loop
vertex -5.43054363196 -7.803030754 5.0
vertex -5.43900707007 -7.80305614184 5.0
vertex -5.43054363196 -7.803030754 0.0
endloop
endfacet
facet normal 0.00299969487264 -0.999995500905 0.0
outer loop
vertex -5.43054363196 -7.803030754 0.0
vertex -5.43900707007 -7.80305614184 5.0
vertex -5.43900707007 -7.80305614184 0.0
endloop
endfacet
facet normal 0.0672855906377 -0.997733756717 0.0
outer loop
vertex -5.43900707007 -7.80305614184 5.0
vertex -5.44745136597 -7.80362561184 5.0
vertex -5.43900707007 -7.80305614184 0.0
endloop
endfacet
facet normal 0.0672855906377 -0.997733756717 0.0
outer loop
vertex -5.43900707007 -7.80305614184 0.0
vertex -5.44745136597 -7.80362561184 5.0
vertex -5.44745136597 -7.80362561184 0.0
endloop
endfacet
facet normal -0.0308334175159 -0.99952453715 0.0
outer loop
vertex -5.44745136597 -7.80362561184 5.0
vertex -5.46352743832 -7.8031296958 5.0
vertex -5.44745136597 -7.80362561184 0.0
endloop
endfacet
facet normal -0.0308334175159 -0.99952453715 -0.0
outer loop
vertex -5.44745136597 -7.80362561184 0.0
vertex -5.46352743832 -7.8031296958 5.0
vertex -5.46352743832 -7.8031296958 0.0
endloop
endfacet
facet normal 0.00299969487267 -0.999995500905 0.0
outer loop
vertex -5.46352743832 -7.8031296958 5.0
vertex -5.47961108553 -7.80317794205 5.0
vertex -5.46352743832 -7.8031296958 0.0
endloop
endfacet
facet normal 0.00299969487267 -0.999995500905 0.0
outer loop
vertex -5.46352743832 -7.8031296958 0.0
vertex -5.47961108553 -7.80317794205 5.0
vertex -5.47961108553 -7.80317794205 0.0
endloop
endfacet
facet normal -0.0950314488192 -0.995474270755 0.0
outer loop
vertex -5.47961108553 -7.80317794205 5.0
vertex -5.48803625832 -7.80237364564 5.0
vertex -5.47961108553 -7.80317794205 0.0
endloop
endfacet
facet normal -0.0950314488192 -0.995474270755 -0.0
outer loop
vertex -5.47961108553 -7.80317794205 0.0
vertex -5.48803625832 -7.80237364564 5.0
vertex -5.48803625832 -7.80237364564 0.0
endloop
endfacet
facet normal -0.0308334175159 -0.99952453715 0.0
outer loop
vertex -5.48803625832 -7.80237364564 5.0
vertex -5.49649571044 -7.80211268775 5.0
vertex -5.48803625832 -7.80237364564 0.0
endloop
endfacet
facet normal -0.0308334175159 -0.99952453715 -0.0
outer loop
vertex -5.48803625832 -7.80237364564 0.0
vertex -5.49649571044 -7.80211268775 5.0
vertex -5.49649571044 -7.80211268775 0.0
endloop
endfacet
facet normal -0.128655483004 -0.991689349894 0.0
outer loop
vertex -5.49649571044 -7.80211268775 5.0
vertex -5.51244576384 -7.80004342904 5.0
vertex -5.49649571044 -7.80211268775 0.0
endloop
endfacet
facet normal -0.128655483004 -0.991689349894 -0.0
outer loop
vertex -5.49649571044 -7.80211268775 0.0
vertex -5.51244576384 -7.80004342904 5.0
vertex -5.51244576384 -7.80004342904 0.0
endloop
endfacet
facet normal -0.0950314488192 -0.995474270755 0.0
outer loop
vertex -5.51244576384 -7.80004342904 5.0
vertex -5.52845669284 -7.79851496987 5.0
vertex -5.51244576384 -7.80004342904 0.0
endloop
endfacet
facet normal -0.0950314488192 -0.995474270755 -0.0
outer loop
vertex -5.51244576384 -7.80004342904 0.0
vertex -5.52845669284 -7.79851496987 5.0
vertex -5.52845669284 -7.79851496987 0.0
endloop
endfacet
facet normal -0.192147387709 -0.981366079196 0.0
outer loop
vertex -5.52845669284 -7.79851496987 5.0
vertex -5.53676246129 -7.79688873503 5.0
vertex -5.52845669284 -7.79851496987 0.0
endloop
endfacet
facet normal -0.192147387709 -0.981366079196 -0.0
outer loop
vertex -5.52845669284 -7.79851496987 0.0
vertex -5.53676246129 -7.79688873503 5.0
vertex -5.53676246129 -7.79688873503 0.0
endloop
endfacet
facet normal -0.128655483004 -0.991689349894 0.0
outer loop
vertex -5.53676246129 -7.79688873503 5.0
vertex -5.54515560049 -7.79579986241 5.0
vertex -5.53676246129 -7.79688873503 0.0
endloop
endfacet
facet normal -0.128655483004 -0.991689349894 -0.0
outer loop
vertex -5.53676246129 -7.79688873503 0.0
vertex -5.54515560049 -7.79579986241 5.0
vertex -5.54515560049 -7.79579986241 0.0
endloop
endfacet
facet normal -0.22523852586 -0.974303652086 0.0
outer loop
vertex -5.54515560049 -7.79579986241 5.0
vertex -5.5608260272 -7.79217718912 5.0
vertex -5.54515560049 -7.79579986241 0.0
endloop
endfacet
facet normal -0.22523852586 -0.974303652086 -0.0
outer loop
vertex -5.54515560049 -7.79579986241 0.0
vertex -5.5608260272 -7.79217718912 5.0
vertex -5.5608260272 -7.79217718912 0.0
endloop
endfacet
facet normal -0.192147387709 -0.981366079196 0.0
outer loop
vertex -5.5608260272 -7.79217718912 5.0
vertex -5.57661004401 -7.78908674442 5.0
vertex -5.5608260272 -7.79217718912 0.0
endloop
endfacet
facet normal -0.192147387709 -0.981366079196 -0.0
outer loop
vertex -5.5608260272 -7.79217718912 0.0
vertex -5.57661004401 -7.78908674442 5.0
vertex -5.57661004401 -7.78908674442 0.0
endloop
endfacet
facet normal -0.287412842218 -0.957806795825 0.0
outer loop
vertex -5.57661004401 -7.78908674442 5.0
vertex -5.58471641903 -7.78665423268 5.0
vertex -5.57661004401 -7.78908674442 0.0
endloop
endfacet
facet normal -0.287412842218 -0.957806795825 -0.0
outer loop
vertex -5.57661004401 -7.78908674442 0.0
vertex -5.58471641903 -7.78665423268 5.0
vertex -5.58471641903 -7.78665423268 0.0
endloop
endfacet
facet normal -0.272774030488 -0.962078130035 0.0
outer loop
vertex -5.59296241479 -7.78474793177 5.0
vertex -7.11445302539 -7.35336599589 5.0
vertex -5.59296241479 -7.78474793177 0.0
endloop
endfacet
facet normal -0.272774030488 -0.962078130035 -0.0
outer loop
vertex -5.59296241479 -7.78474793177 0.0
vertex -7.11445302539 -7.35336599589 5.0
vertex -7.11445302539 -7.35336599589 0.0
endloop
endfacet
facet normal -0.22523852586 -0.974303652086 0.0
outer loop
vertex -5.58471641903 -7.78665423268 5.0
vertex -5.59296241479 -7.78474793177 5.0
vertex -5.58471641903 -7.78665423268 0.0
endloop
endfacet
facet normal -0.22523852586 -0.974303652086 -0.0
outer loop
vertex -5.58471641903 -7.78665423268 0.0
vertex -5.59296241479 -7.78474793177 5.0
vertex -5.59296241479 -7.78474793177 0.0
endloop
endfacet
facet normal -0.245888884489 0.969298022532 0.0
outer loop
vertex -5.44936939513 -6.78604364438 5.0
vertex 3.40333964685 -4.54031250655 5.0
vertex -5.44936939513 -6.78604364438 0.0
endloop
endfacet
facet normal -0.245888884489 0.969298022532 0.0
outer loop
vertex -5.44936939513 -6.78604364438 0.0
vertex 3.40333964685 -4.54031250655 5.0
vertex 3.40333964685 -4.54031250655 0.0
endloop
endfacet
facet normal -0.966484745682 0.256724047107 0.0
outer loop
vertex 3.40333964685 -4.54031250655 5.0
vertex 6.8916864116 8.59220847764 5.0
vertex 3.40333964685 -4.54031250655 0.0
endloop
endfacet
facet normal -0.966484745682 0.256724047107 0.0
outer loop
vertex 3.40333964685 -4.54031250655 0.0
vertex 6.8916864116 8.59220847764 5.0
vertex 6.8916864116 8.59220847764 0.0
endloop
endfacet
facet normal 0.0233089887132 -0.999728308614 0.0
outer loop
vertex 6.8916864116 8.59220847764 5.0
vertex -4.43876547922 8.32803532883 5.0
vertex 6.8916864116 8.59220847764 0.0
endloop
endfacet
facet normal 0.0233089887132 -0.999728308614 0.0
outer loop
vertex 6.8916864116 8.59220847764 0.0
vertex -4.43876547922 8.32803532883 5.0
vertex -4.43876547922 8.32803532883 0.0
endloop
endfacet
facet normal 0.298116968049 -0.954529346517 0.0
outer loop
vertex -4.43876547922 8.32803532883 5.0
vertex -8.28305522533 7.12739335004 5.0
vertex -4.43876547922 8.32803532883 0.0
endloop
endfacet
facet normal 0.298116968049 -0.954529346517 0.0
outer loop
vertex -4.43876547922 8.32803532883 0.0
vertex -8.28305522533 7.12739335004 5.0
vertex -8.28305522533 7.12739335004 0.0
endloop
endfacet
facet normal 0.272774030488 0.962078130035 0.0
outer loop
vertex -6.52444867986 -6.48123086417 5.0
vertex -5.44936939513 -6.78604364438 5.0
vertex -6.52444867986 -6.48123086417 0.0
endloop
endfacet
facet normal 0.272774030488 0.962078130035 0.0
outer loop
vertex -6.52444867986 -6.48123086417 0.0
vertex -5.44936939513 -6.78604364438 5.0
vertex -5.44936939513 -6.78604364438 0.0
endloop
endfacet
facet normal 0.991753290733 0.128161656985 0.0
outer loop
vertex -8.28305522533 7.12739335004 5.0
vertex -6.52444867986 -6.48123086417 5.0
vertex -8.28305522533 7.12739335004 0.0
endloop
endfacet
facet normal 0.991753290733 0.128161656985 0.0
outer loop
vertex -8.28305522533 7.12739335004 0.0
vertex -6.52444867986 -6.48123086417 5.0
vertex -6.52444867986 -6.48123086417 0.0
endloop
endfacet
endsolid