# Blender v3.2.1 OBJ File: ''
# www.blender.org
mtllib HPvLQoJhCV.mtl
o Cube
v 1.000000 1.000000 -1.000000
v 1.000000 -1.000000 -1.000000
v 1.000000 1.000000 1.000000
v 1.000000 -1.000000 1.000000
v -1.000000 1.000000 -1.000000
v -1.000000 -1.000000 -1.000000
v -1.000000 1.000000 1.000000
v -1.000000 -1.000000 1.000000
vt 0.625000 0.500000
vt 0.875000 0.500000
vt 0.875000 0.750000
vt 0.625000 0.750000
vt 0.375000 0.750000
vt 0.625000 1.000000
vt 0.375000 1.000000
vt 0.375000 0.000000
vt 0.625000 0.000000
vt 0.625000 0.250000
vt 0.375000 0.250000
vt 0.125000 0.500000
vt 0.375000 0.500000
vt 0.125000 0.750000
vn 0.0000 1.0000 0.0000
vn 0.0000 0.0000 1.0000
vn -1.0000 0.0000 0.0000
vn 0.0000 -1.0000 0.0000
vn 1.0000 0.0000 0.0000
vn 0.0000 0.0000 -1.0000
usemtl Material
s off
f 1/1/1 5/2/1 7/3/1 3/4/1
f 4/5/2 3/4/2 7/6/2 8/7/2
f 8/8/3 7/9/3 5/10/3 6/11/3
f 6/12/4 2/13/4 4/5/4 8/14/4
f 2/13/5 1/1/5 3/4/5 4/5/5
f 6/11/6 5/10/6 1/1/6 2/13/6
o HPvLQoJhCV
v -7.114453 -7.353366 0.000000
v -7.160477 -7.337865 0.000000
v -7.204781 -7.317973 0.000000
v -5.592962 -7.784748 0.000000
v -5.449369 -6.786044 0.000000
v -5.584716 -7.786654 0.000000
v -7.473943 -6.936408 0.000000
v -6.524449 -6.481231 0.000000
v -7.386640 -7.160541 0.000000
v -7.412673 -7.119544 0.000000
v -7.356752 -7.198819 0.000000
v -7.323291 -7.234017 0.000000
v -7.286573 -7.265803 0.000000
v -7.246945 -7.293876 0.000000
v -5.560826 -7.792177 0.000000
v -5.576610 -7.789087 0.000000
v -5.463527 -7.803130 0.000000
v -5.479611 -7.803178 0.000000
v -5.488036 -7.802373 0.000000
v -5.512446 -7.800044 0.000000
v -5.365962 -7.794890 0.000000
v -5.439007 -7.803056 0.000000
v -5.447452 -7.803626 0.000000
v -5.414542 -7.801406 0.000000
v -5.536762 -7.796889 0.000000
v -5.545156 -7.795800 0.000000
v -5.496496 -7.802113 0.000000
v -5.528457 -7.798515 0.000000
v -9.325448 7.564504 0.000000
v -9.332513 7.465164 0.000000
v -9.331460 7.515010 0.000000
v -9.314537 7.613153 0.000000
v -9.298835 7.660474 0.000000
v -9.328597 7.415461 0.000000
v -9.278499 7.705996 0.000000
v -9.253730 7.749265 0.000000
v -9.155496 7.861400 0.000000
v -9.191921 7.827355 0.000000
v -9.224774 7.789853 0.000000
v -9.073412 7.917797 0.000000
v -7.452234 -7.030962 0.000000
v -7.465387 -6.984212 0.000000
v -7.434607 -7.076215 0.000000
v -9.028569 7.939589 0.000000
v -8.981778 7.956806 0.000000
v -9.115862 7.891647 0.000000
v -8.283055 7.127393 0.000000
v -4.669769 9.303525 0.000000
v -5.430543 -7.803031 0.000000
v -5.390147 -7.798930 0.000000
v -5.398495 -7.800324 0.000000
v -5.381727 -7.798075 0.000000
v -5.341927 -7.790034 0.000000
v 3.403340 -4.540312 0.000000
v -5.333631 -7.788358 0.000000
v 3.934082 -5.437350 0.000000
v 4.294379 -5.081063 0.000000
v -5.350098 -7.792240 0.000000
v -4.438766 8.328035 0.000000
v 4.024858 -5.404723 0.000000
v 3.980258 -5.423230 0.000000
v 4.107679 -5.355271 0.000000
v 4.067463 -5.381999 0.000000
v 4.179463 -5.290837 0.000000
v 4.145129 -5.324789 0.000000
v 4.237539 -5.213817 0.000000
v 4.260738 -5.171468 0.000000
v 4.279744 -5.127079 0.000000
v 6.891686 8.592209 0.000000
v 8.029169 8.979237 0.000000
v 4.210363 -5.253730 0.000000
v -4.532365 9.326125 0.000000
v -4.578803 9.322874 0.000000
v -4.624737 9.315319 0.000000
v 7.534272 9.607462 0.000000
v 7.583019 9.606220 0.000000
v 7.852345 9.502703 0.000000
v 7.889375 9.470976 0.000000
v 7.812400 9.530672 0.000000
v 7.725311 9.574311 0.000000
v 7.631414 9.600236 0.000000
v 7.678996 9.589565 0.000000
v 7.769921 9.554618 0.000000
v 8.041666 9.172728 0.000000
v 8.039374 9.026919 0.000000
v 8.032965 9.220708 0.000000
v 8.019630 9.267612 0.000000
v 8.045653 9.124127 0.000000
v 8.044887 9.075370 0.000000
v 7.923138 9.435792 0.000000
v 7.953314 9.397487 0.000000
v 7.979615 9.356424 0.000000
v 8.001790 9.312995 0.000000
v -7.204781 -7.317973 5.000000
v -7.160477 -7.337865 5.000000
v -7.114453 -7.353366 5.000000
v -5.584716 -7.786654 5.000000
v -5.449369 -6.786044 5.000000
v -5.592962 -7.784748 5.000000
v -7.473943 -6.936408 5.000000
v -6.524449 -6.481231 5.000000
v -7.356752 -7.198819 5.000000
v -7.412673 -7.119544 5.000000
v -7.386640 -7.160541 5.000000
v -7.286573 -7.265803 5.000000
v -7.323291 -7.234017 5.000000
v -7.246945 -7.293876 5.000000
v -5.576610 -7.789087 5.000000
v -5.560826 -7.792177 5.000000
v -5.488036 -7.802373 5.000000
v -5.479611 -7.803178 5.000000
v -5.463527 -7.803130 5.000000
v -5.512446 -7.800044 5.000000
v -5.365962 -7.794890 5.000000
v -5.447452 -7.803626 5.000000
v -5.439007 -7.803056 5.000000
v -5.414542 -7.801406 5.000000
v -5.545156 -7.795800 5.000000
v -5.536762 -7.796889 5.000000
v -5.496496 -7.802113 5.000000
v -5.528457 -7.798515 5.000000
v -9.331460 7.515010 5.000000
v -9.332513 7.465164 5.000000
v -9.325448 7.564504 5.000000
v -9.298835 7.660474 5.000000
v -9.314537 7.613153 5.000000
v -9.278499 7.705996 5.000000
v -9.328597 7.415461 5.000000
v -9.155496 7.861400 5.000000
v -9.253730 7.749265 5.000000
v -9.224774 7.789853 5.000000
v -9.191921 7.827355 5.000000
v -9.073412 7.917797 5.000000
v -7.465387 -6.984212 5.000000
v -7.452234 -7.030962 5.000000
v -7.434607 -7.076215 5.000000
v -8.981778 7.956806 5.000000
v -9.028569 7.939589 5.000000
v -9.115862 7.891647 5.000000
v -8.283055 7.127393 5.000000
v -4.669769 9.303525 5.000000
v -5.430543 -7.803031 5.000000
v -5.398495 -7.800324 5.000000
v -5.390147 -7.798930 5.000000
v -5.381727 -7.798075 5.000000
v -5.341927 -7.790034 5.000000
v -5.333631 -7.788358 5.000000
v 3.403340 -4.540312 5.000000
v 3.934082 -5.437350 5.000000
v 4.294379 -5.081063 5.000000
v -5.350098 -7.792240 5.000000
v -4.438766 8.328035 5.000000
v 4.107679 -5.355271 5.000000
v 3.980258 -5.423230 5.000000
v 4.024858 -5.404723 5.000000
v 4.067463 -5.381999 5.000000
v 4.145129 -5.324789 5.000000
v 4.179463 -5.290837 5.000000
v 4.237539 -5.213817 5.000000
v 4.279744 -5.127079 5.000000
v 4.260738 -5.171468 5.000000
v 6.891686 8.592209 5.000000
v 8.029169 8.979237 5.000000
v 4.210363 -5.253730 5.000000
v -4.532365 9.326125 5.000000
v -4.624737 9.315319 5.000000
v -4.578803 9.322874 5.000000
v 7.583019 9.606220 5.000000
v 7.534272 9.607462 5.000000
v 7.812400 9.530672 5.000000
v 7.889375 9.470976 5.000000
v 7.852345 9.502703 5.000000
v 7.631414 9.600236 5.000000
v 7.725311 9.574311 5.000000
v 7.678996 9.589565 5.000000
v 7.769921 9.554618 5.000000
v 8.041666 9.172728 5.000000
v 8.039374 9.026919 5.000000
v 8.019630 9.267612 5.000000
v 8.032965 9.220708 5.000000
v 8.045653 9.124127 5.000000
v 8.044887 9.075370 5.000000
v 7.953314 9.397487 5.000000
v 7.923138 9.435792 5.000000
v 7.979615 9.356424 5.000000
v 8.001790 9.312995 5.000000
vn 0.0000 0.0000 -1.0000
vn 0.0000 0.0000 1.0000
vn -0.3192 -0.9477 0.0000
vn -0.4096 -0.9123 0.0000
vn -0.4962 -0.8682 0.0000
vn -0.5781 -0.8160 0.0000
vn -0.6545 -0.7561 0.0000
vn -0.7248 -0.6890 0.0000
vn -0.7247 -0.6890 0.0000
vn -0.7882 -0.6154 0.0000
vn -0.8442 -0.5361 0.0000
vn -0.8922 -0.4517 0.0000
vn -0.8922 -0.4516 0.0000
vn -0.9318 -0.3630 0.0000
vn -0.9626 -0.2708 0.0000
vn -0.9844 -0.1762 0.0000
vn -0.9918 -0.1282 0.0000
vn -0.9969 -0.0785 0.0000
vn -0.9998 0.0211 0.0000
vn -0.9927 0.1206 0.0000
vn -0.9758 0.2189 0.0000
vn -0.9758 0.2188 0.0000
vn -0.9491 0.3149 0.0000
vn -0.9491 0.3150 0.0000
vn -0.9130 0.4079 0.0000
vn -0.8679 0.4968 0.0000
vn -0.8141 0.5808 0.0000
vn -0.7522 0.6589 0.0000
vn -0.6828 0.7306 0.0000
vn -0.6067 0.7949 0.0000
vn -0.6067 0.7950 0.0000
vn -0.5245 0.8514 0.0000
vn -0.4371 0.8994 0.0000
vn -0.3453 0.9385 0.0000
vn -0.2981 0.9545 0.0000
vn -0.2534 0.9674 0.0000
vn -0.1623 0.9867 0.0000
vn -0.0698 0.9976 0.0000
vn -0.0233 0.9997 0.0000
vn 0.0255 0.9997 0.0000
vn 0.1227 0.9924 0.0000
vn 0.2188 0.9758 0.0000
vn 0.3128 0.9498 0.0000
vn 0.4039 0.9148 0.0000
vn 0.4911 0.8711 0.0000
vn 0.5736 0.8192 0.0000
vn 0.6506 0.7594 0.0000
vn 0.7215 0.6924 0.0000
vn 0.7855 0.6188 0.0000
vn 0.8421 0.5393 0.0000
vn 0.8421 0.5394 0.0000
vn 0.8906 0.4548 0.0000
vn 0.8906 0.4547 0.0000
vn 0.9307 0.3659 0.0000
vn 0.9619 0.2735 0.0000
vn 0.9840 0.1784 0.0000
vn 0.9967 0.0818 0.0000
vn 0.9966 0.0818 0.0000
vn 0.9999 -0.0157 0.0000
vn 0.9936 -0.1131 0.0000
vn 0.9936 -0.1130 0.0000
vn 0.9778 -0.2093 0.0000
vn 0.9779 -0.2093 0.0000
vn 0.9665 -0.2567 0.0000
vn 0.9530 -0.3031 0.0000
vn 0.9193 -0.3936 0.0000
vn 0.8770 -0.4804 0.0000
vn 0.8266 -0.5628 0.0000
vn 0.7684 -0.6399 0.0000
vn 0.7685 -0.6399 0.0000
vn 0.7031 -0.7110 0.0000
vn 0.7031 -0.7111 0.0000
vn 0.6313 -0.7756 0.0000
vn 0.5535 -0.8328 0.0000
vn 0.4706 -0.8823 0.0000
vn 0.3833 -0.9236 0.0000
vn 0.2924 -0.9563 0.0000
vn 0.2459 -0.9693 0.0000
vn 0.1980 -0.9802 0.0000
vn 0.2607 -0.9654 0.0000
vn 0.2606 -0.9654 0.0000
vn 0.1648 -0.9863 0.0000
vn 0.1010 -0.9949 0.0000
vn 0.1647 -0.9863 0.0000
vn 0.0673 -0.9977 0.0000
vn 0.0030 -1.0000 0.0000
vn -0.0308 -0.9995 0.0000
vn -0.0950 -0.9955 0.0000
vn -0.1286 -0.9917 0.0000
vn -0.1921 -0.9814 0.0000
vn -0.1287 -0.9917 0.0000
vn -0.2252 -0.9743 0.0000
vn -0.2875 -0.9578 0.0000
vn -0.2728 -0.9621 0.0000
vn -0.2459 0.9693 0.0000
vn -0.9665 0.2567 0.0000
vn 0.0233 -0.9997 0.0000
vn 0.2981 -0.9545 0.0000
vn 0.2728 0.9621 0.0000
vn 0.9918 0.1282 0.0000
usemtl None
s off
f 9//7 10//7 11//7
f 12//7 13//7 14//7
f 9//7 11//7 15//7
f 12//7 9//7 16//7
f 17//7 18//7 19//7
f 20//7 19//7 21//7
f 11//7 22//7 21//7
f 18//7 21//7 19//7
f 18//7 11//7 21//7
f 23//7 24//7 14//7
f 25//7 26//7 27//7
f 25//7 27//7 28//7
f 23//7 13//7 29//7
f 25//7 30//7 31//7
f 28//7 32//7 25//7
f 33//7 34//7 23//7
f 28//7 33//7 23//7
f 28//7 27//7 35//7
f 33//7 28//7 36//7
f 29//7 28//7 23//7
f 23//7 14//7 13//7
f 32//7 30//7 25//7
f 37//7 38//7 39//7
f 40//7 41//7 37//7
f 42//7 37//7 43//7
f 38//7 37//7 42//7
f 44//7 45//7 43//7
f 37//7 41//7 43//7
f 46//7 45//7 47//7
f 44//7 47//7 45//7
f 45//7 48//7 43//7
f 48//7 42//7 43//7
f 49//7 50//7 15//7
f 51//7 49//7 15//7
f 51//7 15//7 11//7
f 13//7 12//7 16//7
f 18//7 51//7 11//7
f 15//7 16//7 9//7
f 52//7 53//7 48//7
f 45//7 54//7 48//7
f 42//7 48//7 53//7
f 42//7 53//7 55//7
f 56//7 55//7 53//7
f 55//7 16//7 15//7
f 15//7 42//7 55//7
f 32//7 57//7 30//7
f 58//7 59//7 32//7
f 29//7 60//7 58//7
f 32//7 29//7 58//7
f 13//7 61//7 29//7
f 62//7 63//7 13//7
f 63//7 61//7 13//7
f 64//7 63//7 62//7
f 65//7 64//7 62//7
f 66//7 29//7 61//7
f 55//7 56//7 67//7
f 68//7 69//7 70//7
f 71//7 68//7 70//7
f 72//7 73//7 70//7
f 64//7 65//7 70//7
f 72//7 70//7 65//7
f 65//7 74//7 72//7
f 75//7 74//7 76//7
f 77//7 65//7 62//7
f 78//7 65//7 77//7
f 76//7 74//7 65//7
f 74//7 79//7 72//7
f 70//7 69//7 64//7
f 80//7 77//7 67//7
f 81//7 80//7 82//7
f 56//7 82//7 80//7
f 83//7 84//7 78//7
f 80//7 83//7 77//7
f 85//7 86//7 87//7
f 80//7 67//7 56//7
f 88//7 86//7 89//7
f 84//7 89//7 86//7
f 90//7 88//7 89//7
f 87//7 86//7 88//7
f 87//7 88//7 91//7
f 92//7 84//7 86//7
f 93//7 78//7 92//7
f 94//7 92//7 95//7
f 92//7 96//7 93//7
f 97//7 93//7 96//7
f 98//7 99//7 86//7
f 100//7 86//7 99//7
f 101//7 95//7 100//7
f 92//7 86//7 100//7
f 100//7 95//7 92//7
f 78//7 84//7 92//7
f 77//7 83//7 78//7
f 32//7 28//7 29//7
f 102//8 103//8 104//8
f 105//8 106//8 107//8
f 108//8 102//8 104//8
f 109//8 104//8 107//8
f 110//8 111//8 112//8
f 113//8 110//8 114//8
f 113//8 115//8 102//8
f 110//8 113//8 111//8
f 113//8 102//8 111//8
f 105//8 116//8 117//8
f 118//8 119//8 120//8
f 121//8 118//8 120//8
f 122//8 106//8 117//8
f 123//8 124//8 120//8
f 120//8 125//8 121//8
f 117//8 126//8 127//8
f 117//8 127//8 121//8
f 128//8 118//8 121//8
f 129//8 121//8 127//8
f 117//8 121//8 122//8
f 106//8 105//8 117//8
f 120//8 124//8 125//8
f 130//8 131//8 132//8
f 132//8 133//8 134//8
f 135//8 132//8 136//8
f 136//8 132//8 131//8
f 135//8 137//8 138//8
f 135//8 133//8 132//8
f 139//8 137//8 140//8
f 137//8 139//8 138//8
f 135//8 141//8 137//8
f 135//8 136//8 141//8
f 108//8 142//8 143//8
f 108//8 143//8 144//8
f 102//8 108//8 144//8
f 109//8 107//8 106//8
f 102//8 144//8 111//8
f 104//8 109//8 108//8
f 141//8 145//8 146//8
f 141//8 147//8 137//8
f 145//8 141//8 136//8
f 148//8 145//8 136//8
f 145//8 148//8 149//8
f 108//8 109//8 148//8
f 148//8 136//8 108//8
f 124//8 150//8 125//8
f 125//8 151//8 152//8
f 152//8 153//8 122//8
f 152//8 122//8 125//8
f 122//8 154//8 106//8
f 106//8 155//8 156//8
f 106//8 154//8 155//8
f 156//8 155//8 157//8
f 156//8 157//8 158//8
f 154//8 122//8 159//8
f 160//8 149//8 148//8
f 161//8 162//8 163//8
f 161//8 163//8 164//8
f 161//8 165//8 166//8
f 161//8 158//8 157//8
f 158//8 161//8 166//8
f 166//8 167//8 158//8
f 168//8 167//8 169//8
f 156//8 158//8 170//8
f 170//8 158//8 171//8
f 158//8 167//8 168//8
f 166//8 172//8 167//8
f 157//8 162//8 161//8
f 160//8 170//8 173//8
f 174//8 173//8 175//8
f 173//8 174//8 149//8
f 171//8 176//8 177//8
f 170//8 177//8 173//8
f 178//8 179//8 180//8
f 149//8 160//8 173//8
f 181//8 179//8 182//8
f 179//8 181//8 176//8
f 181//8 182//8 183//8
f 182//8 179//8 178//8
f 184//8 182//8 178//8
f 179//8 176//8 185//8
f 185//8 171//8 186//8
f 187//8 185//8 188//8
f 186//8 189//8 185//8
f 189//8 186//8 190//8
f 179//8 191//8 192//8
f 191//8 179//8 193//8
f 193//8 187//8 194//8
f 193//8 179//8 185//8
f 185//8 187//8 193//8
f 185//8 176//8 171//8
f 171//8 177//8 170//8
f 122//8 121//8 125//8
f 104//9 103//9 9//9
f 9//9 103//9 10//9
f 103//10 102//10 10//10
f 10//10 102//10 11//10
f 102//11 115//11 11//11
f 11//11 115//11 22//11
f 115//12 113//12 22//12
f 22//12 113//12 21//12
f 113//13 114//13 21//13
f 21//13 114//13 20//13
f 114//14 110//14 20//14
f 20//15 110//15 19//15
f 110//16 112//16 19//16
f 19//16 112//16 17//16
f 112//17 111//17 17//17
f 17//17 111//17 18//17
f 111//18 144//18 18//18
f 18//19 144//19 51//19
f 144//20 143//20 51//20
f 51//20 143//20 49//20
f 143//21 142//21 49//21
f 49//21 142//21 50//21
f 142//22 108//22 50//22
f 50//22 108//22 15//22
f 108//23 136//23 15//23
f 15//23 136//23 42//23
f 136//24 131//24 42//24
f 42//24 131//24 38//24
f 131//25 130//25 38//25
f 38//25 130//25 39//25
f 130//26 132//26 39//26
f 39//26 132//26 37//26
f 132//27 134//27 37//27
f 37//28 134//28 40//28
f 134//29 133//29 40//29
f 40//30 133//30 41//30
f 133//31 135//31 41//31
f 41//31 135//31 43//31
f 135//32 138//32 43//32
f 43//32 138//32 44//32
f 138//33 139//33 44//33
f 44//33 139//33 47//33
f 139//34 140//34 47//34
f 47//34 140//34 46//34
f 140//35 137//35 46//35
f 46//35 137//35 45//35
f 137//36 147//36 45//36
f 45//37 147//37 54//37
f 147//38 141//38 54//38
f 54//38 141//38 48//38
f 141//39 146//39 48//39
f 48//39 146//39 52//39
f 146//40 145//40 52//40
f 52//40 145//40 53//40
f 145//41 149//41 53//41
f 53//41 149//41 56//41
f 149//42 174//42 56//42
f 56//42 174//42 82//42
f 174//43 175//43 82//43
f 82//43 175//43 81//43
f 175//44 173//44 81//44
f 81//44 173//44 80//44
f 173//45 177//45 80//45
f 80//45 177//45 83//45
f 177//46 176//46 83//46
f 83//46 176//46 84//46
f 176//47 181//47 84//47
f 84//47 181//47 89//47
f 181//48 183//48 89//48
f 89//48 183//48 90//48
f 183//49 182//49 90//49
f 90//49 182//49 88//49
f 182//50 184//50 88//50
f 88//50 184//50 91//50
f 184//51 178//51 91//51
f 91//51 178//51 87//51
f 178//52 180//52 87//52
f 87//52 180//52 85//52
f 180//53 179//53 85//53
f 85//53 179//53 86//53
f 179//54 192//54 86//54
f 86//54 192//54 98//54
f 192//55 191//55 98//55
f 98//55 191//55 99//55
f 191//56 193//56 99//56
f 99//57 193//57 100//57
f 193//58 194//58 100//58
f 100//59 194//59 101//59
f 194//60 187//60 101//60
f 101//60 187//60 95//60
f 187//61 188//61 95//61
f 95//61 188//61 94//61
f 188//62 185//62 94//62
f 94//62 185//62 92//62
f 185//63 189//63 92//63
f 92//64 189//64 96//64
f 189//65 190//65 96//65
f 96//65 190//65 97//65
f 190//66 186//66 97//66
f 97//67 186//67 93//67
f 186//68 171//68 93//68
f 93//69 171//69 78//69
f 171//70 158//70 78//70
f 78//70 158//70 65//70
f 158//71 168//71 65//71
f 65//71 168//71 76//71
f 168//72 169//72 76//72
f 76//72 169//72 75//72
f 169//73 167//73 75//73
f 75//73 167//73 74//73
f 167//74 172//74 74//74
f 74//74 172//74 79//74
f 172//75 166//75 79//75
f 79//76 166//76 72//76
f 166//77 165//77 72//77
f 72//78 165//78 73//78
f 165//79 161//79 73//79
f 73//79 161//79 70//79
f 161//80 164//80 70//80
f 70//80 164//80 71//80
f 164//81 163//81 71//81
f 71//81 163//81 68//81
f 163//82 162//82 68//82
f 68//82 162//82 69//82
f 162//83 157//83 69//83
f 69//83 157//83 64//83
f 157//84 155//84 64//84
f 64//84 155//84 63//84
f 155//85 154//85 63//85
f 63//85 154//85 61//85
f 154//86 159//86 61//86
f 61//87 159//87 66//87
f 159//88 122//88 66//88
f 66//88 122//88 29//88
f 122//85 153//85 29//85
f 29//85 153//85 60//85
f 153//89 152//89 60//89
f 60//89 152//89 58//89
f 152//90 151//90 58//90
f 58//90 151//90 59//90
f 151//91 125//91 59//91
f 59//91 125//91 32//91
f 125//89 150//89 32//89
f 32//89 150//89 57//89
f 150//92 124//92 57//92
f 57//92 124//92 30//92
f 124//91 123//91 30//91
f 30//91 123//91 31//91
f 123//93 120//93 31//93
f 31//93 120//93 25//93
f 120//92 119//92 25//92
f 25//92 119//92 26//92
f 119//94 118//94 26//94
f 26//94 118//94 27//94
f 118//93 128//93 27//93
f 27//93 128//93 35//93
f 128//95 121//95 35//95
f 35//95 121//95 28//95
f 121//94 129//94 28//94
f 28//94 129//94 36//94
f 129//96 127//96 36//96
f 36//96 127//96 33//96
f 127//97 126//97 33//97
f 33//97 126//97 34//97
f 126//98 117//98 34//98
f 34//98 117//98 23//98
f 117//96 116//96 23//96
f 23//96 116//96 24//96
f 116//99 105//99 24//99
f 24//99 105//99 14//99
f 107//100 104//100 12//100
f 12//100 104//100 9//100
f 105//98 107//98 14//98
f 14//98 107//98 12//98
f 106//101 156//101 13//101
f 13//101 156//101 62//101
f 156//102 170//102 62//102
f 62//102 170//102 77//102
f 170//103 160//103 77//103
f 77//103 160//103 67//103
f 160//104 148//104 67//104
f 67//104 148//104 55//104
f 109//105 106//105 16//105
f 16//105 106//105 13//105
f 148//106 109//106 55//106
f 55//106 109//106 16//106
