solid 
facet normal 0.0 0.0 -1.0
outer loop
vertex -4.931565128585499 -9.442260181075179 0.0
vertex -4.949749660352633 -9.422196642081824 0.0
vertex -4.969449179016204 -9.39563491599318 0.0
endloop
endfacet
facet normal -0.0 -0.0 -1.0
outer loop
vertex -5.0476605524841816 -9.226404771840237 0.0
vertex -4.931565128585499 -9.442260181075179 0.0
vertex -4.969449179016204 -9.39563491599318 0.0
endloop
endfacet
facet normal -0.0 -0.0 -1.0
outer loop
vertex -4.931565128585499 -9.442260181075179 0.0
vertex -4.896911414843845 -9.476577381473675 0.0
vertex -4.916797824264537 -9.458553390593275 0.0
endloop
endfacet
facet normal -0.0 -0.0 -1.0
outer loop
vertex -5.0476605524841816 -9.226404771840237 0.0
vertex -4.896911414843845 -9.476577381473675 0.0
vertex -4.931565128585499 -9.442260181075179 0.0
endloop
endfacet
facet normal 0.0 0.0 -1.0
outer loop
vertex -5.025184199926908 -9.296341716182544 0.0
vertex -5.041714601537369 -9.250142338627231 0.0
vertex -5.0476605524841816 -9.226404771840237 0.0
endloop
endfacet
facet normal 0.0 0.0 -1.0
outer loop
vertex -4.969449179016204 -9.39563491599318 0.0
vertex -4.978979239822536 -9.382785116509803 0.0
vertex -5.004205065845441 -9.340698368413001 0.0
endloop
endfacet
facet normal -0.0 -0.0 -0.9999999999999999
outer loop
vertex -5.025184199926908 -9.296341716182544 0.0
vertex -4.969449179016204 -9.39563491599318 0.0
vertex -5.004205065845441 -9.340698368413001 0.0
endloop
endfacet
facet normal -0.0 -0.0 -1.0
outer loop
vertex -5.0476605524841816 -9.226404771840237 0.0
vertex -4.969449179016204 -9.39563491599318 0.0
vertex -5.025184199926908 -9.296341716182544 0.0
endloop
endfacet
facet normal 0.0 0.0 -1.0
outer loop
vertex -4.828427994791616 -9.528287887780223 0.0
vertex -4.880441075753088 -9.491505226681369 0.0
vertex -4.896911414843845 -9.476577381473675 0.0
endloop
endfacet
facet normal 0.0 0.0 -1.0
outer loop
vertex -4.702421869590453 -9.58496429821328 0.0
vertex -4.708386772298496 -9.583470167866105 0.0
vertex -4.75458614985381 -9.566939766255643 0.0
endloop
endfacet
facet normal 0.0 0.0 -1.0
outer loop
vertex -4.615839827373206 -9.602060308324589 0.0
vertex -4.702421869590453 -9.58496429821328 0.0
vertex -4.765095686781865 -9.561969125477745 0.0
endloop
endfacet
facet normal 0.0 0.0 -1.0
outer loop
vertex -4.660789594679328 -9.595392640201617 0.0
vertex -4.702421869590453 -9.58496429821328 0.0
vertex -4.615839827373206 -9.602060308324589 0.0
endloop
endfacet
facet normal 0.0 0.0 -1.0
outer loop
vertex -4.615839827373206 -9.602060308324589 0.0
vertex -4.765095686781865 -9.561969125477745 0.0
vertex -5.0476605524841816 -9.226404771840237 0.0
endloop
endfacet
facet normal -0.0 -0.0 -1.0
outer loop
vertex -5.0476605524841816 -9.226404771840237 0.0
vertex -4.765095686781865 -9.561969125477745 0.0
vertex -4.896911414843845 -9.476577381473675 0.0
endloop
endfacet
facet normal -0.0 -0.0 -1.0
outer loop
vertex -4.765095686781865 -9.561969125477745 0.0
vertex -4.702421869590453 -9.58496429821328 0.0
vertex -4.75458614985381 -9.566939766255643 0.0
endloop
endfacet
facet normal 0.0 0.0 -1.0
outer loop
vertex -4.798942802084262 -9.545960632174179 0.0
vertex -4.828427994791616 -9.528287887780223 0.0
vertex -4.765095686781865 -9.561969125477745 0.0
endloop
endfacet
facet normal -0.0 -0.0 -0.9999999999999999
outer loop
vertex -4.896911414843845 -9.476577381473675 0.0
vertex -4.765095686781865 -9.561969125477745 0.0
vertex -4.828427994791616 -9.528287887780223 0.0
endloop
endfacet
facet normal -0.0 -0.0 -1.0
outer loop
vertex -4.880441075753088 -9.491505226681369 0.0
vertex -4.828427994791616 -9.528287887780223 0.0
vertex -4.841029550181066 -9.520734806151273 0.0
endloop
endfacet
facet normal -0.0 -0.0 -1.0
outer loop
vertex -5.0476605524841816 -9.226404771840237 0.0
vertex -4.563244433671264 -9.605 0.0
vertex -4.615839827373206 -9.602060308324589 0.0
endloop
endfacet
facet normal 0.0 -0.0 -1.0
outer loop
vertex -5.060836797007362 9.15400857016478 0.0
vertex -4.612253003836044 9.602592363336099 0.0
vertex -5.063244433671264 9.105 0.0
endloop
endfacet
facet normal 0.0 0.0 -1.0
outer loop
vertex -5.0476605524841816 -9.226404771840237 0.0
vertex -5.0536370738728795 -9.202545161008066 0.0
vertex -5.060836797007362 -9.154008570164782 0.0
endloop
endfacet
facet normal -0.0 -0.0 -1.0
outer loop
vertex -5.063244433671264 -9.105 0.0
vertex -5.0476605524841816 -9.226404771840237 0.0
vertex -5.060836797007362 -9.154008570164782 0.0
endloop
endfacet
facet normal 0.0 -0.0 -1.0
outer loop
vertex -4.612253003836044 9.602592363336099 0.0
vertex -4.563244433671264 9.605 0.0
vertex -5.063244433671264 9.105 0.0
endloop
endfacet
facet normal -0.0 0.0 -1.0
outer loop
vertex -5.025184199926907 9.296341716182546 0.0
vertex -5.060836797007362 9.15400857016478 0.0
vertex -5.0536370738728795 9.202545161008064 0.0
endloop
endfacet
facet normal 0.0 -0.0 -0.9999999999999999
outer loop
vertex -5.041714601537369 9.250142338627231 0.0
vertex -5.025184199926907 9.296341716182546 0.0
vertex -5.0536370738728795 9.202545161008064 0.0
endloop
endfacet
facet normal -0.0 0.0 -1.0
outer loop
vertex -4.978979239822537 9.382785116509801 0.0
vertex -5.025184199926907 9.296341716182546 0.0
vertex -5.004205065845442 9.340698368413 0.0
endloop
endfacet
facet normal 0.0 0.0 -1.0
outer loop
vertex -5.060836797007362 9.15400857016478 0.0
vertex -5.025184199926907 9.296341716182546 0.0
vertex -4.978979239822537 9.382785116509801 0.0
endloop
endfacet
facet normal 0.0 0.0 -1.0
outer loop
vertex -4.563244433671264 -9.605 0.0
vertex -5.0476605524841816 -9.226404771840237 0.0
vertex -5.063244433671264 -9.105 0.0
endloop
endfacet
facet normal -0.0 0.0 -1.0
outer loop
vertex -4.916797824264538 9.458553390593273 0.0
vertex -4.978979239822537 9.382785116509801 0.0
vertex -4.949749660352633 9.422196642081824 0.0
endloop
endfacet
facet normal 0.0 -0.0 -1.0
outer loop
vertex -4.880441075753087 9.491505226681369 0.0
vertex -4.841029550181065 9.520734806151273 0.0
vertex -4.916797824264538 9.458553390593273 0.0
endloop
endfacet
facet normal 0.0 0.0 -1.0
outer loop
vertex -4.978979239822537 9.382785116509801 0.0
vertex -4.916797824264538 9.458553390593273 0.0
vertex -4.841029550181065 9.520734806151273 0.0
endloop
endfacet
facet normal 0.0 -0.0 -0.9999999999999999
outer loop
vertex -4.841029550181065 9.520734806151273 0.0
vertex -4.612253003836044 9.602592363336099 0.0
vertex -4.978979239822537 9.382785116509801 0.0
endloop
endfacet
facet normal -0.0 0.0 -1.0
outer loop
vertex -4.754586149853809 9.566939766255643 0.0
vertex -4.841029550181065 9.520734806151273 0.0
vertex -4.798942802084263 9.545960632174179 0.0
endloop
endfacet
facet normal 0.0 -0.0 -0.9999999999999999
outer loop
vertex -4.660789594679328 9.595392640201617 0.0
vertex -4.612253003836044 9.602592363336099 0.0
vertex -4.708386772298495 9.583470167866105 0.0
endloop
endfacet
facet normal 0.0 0.0 -1.0
outer loop
vertex -4.754586149853809 9.566939766255643 0.0
vertex -4.708386772298495 9.583470167866105 0.0
vertex -4.612253003836044 9.602592363336099 0.0
endloop
endfacet
facet normal 0.0 -0.0 -1.0
outer loop
vertex -4.754586149853809 9.566939766255643 0.0
vertex -4.612253003836044 9.602592363336099 0.0
vertex -4.841029550181065 9.520734806151273 0.0
endloop
endfacet
facet normal -0.0 0.0 -1.0
outer loop
vertex -4.612253003836044 9.602592363336099 0.0
vertex -5.060836797007362 9.15400857016478 0.0
vertex -4.978979239822537 9.382785116509801 0.0
endloop
endfacet
facet normal -0.0 0.0 -1.0
outer loop
vertex -4.063244433671264 -8.605 0.0
vertex -5.063244433671264 -9.105 0.0
vertex -5.063244433671264 9.105 0.0
endloop
endfacet
facet normal 0.0 0.0 -1.0
outer loop
vertex -4.612253003836045 -9.602592363336099 0.0
vertex -4.615839827373206 -9.602060308324589 0.0
vertex -4.563244433671264 -9.605 0.0
endloop
endfacet
facet normal 0.0 0.0 -1.0
outer loop
vertex 4.563244433671264 -9.605 0.0
vertex -4.563244433671264 -9.605 0.0
vertex 4.063244433671264 -8.605 0.0
endloop
endfacet
facet normal 0.0 0.0 -0.9999999999999999
outer loop
vertex 4.708386772298495 -9.583470167866105 0.0
vertex 4.660789594679328 -9.595392640201617 0.0
vertex 4.612253003836044 -9.602592363336099 0.0
endloop
endfacet
facet normal -0.0 0.0 -1.0
outer loop
vertex 4.612253003836044 -9.602592363336099 0.0
vertex 4.563244433671264 -9.605 0.0
vertex 5.060836797007362 -9.15400857016478 0.0
endloop
endfacet
facet normal 0.0 -0.0 -1.0
outer loop
vertex 4.612253003836044 -9.602592363336099 0.0
vertex 4.754586149853809 -9.566939766255643 0.0
vertex 4.708386772298495 -9.583470167866105 0.0
endloop
endfacet
facet normal -0.0 0.0 -1.0
outer loop
vertex 4.063244433671264 -8.605 0.0
vertex -4.563244433671264 -9.605 0.0
vertex -4.063244433671264 -8.605 0.0
endloop
endfacet
facet normal 0.0 0.0 -1.0
outer loop
vertex 4.841029550181066 -9.520734806151273 0.0
vertex 4.798942802084263 -9.545960632174179 0.0
vertex 4.754586149853809 -9.566939766255643 0.0
endloop
endfacet
facet normal 0.0 -0.0 -1.0
outer loop
vertex 4.063244433671264 -8.605 0.0
vertex 5.063244433671264 -9.105 0.0
vertex 4.563244433671264 -9.605 0.0
endloop
endfacet
facet normal 0.0 0.0 -1.0
outer loop
vertex 4.978979239822537 -9.382785116509801 0.0
vertex 4.754586149853809 -9.566939766255643 0.0
vertex 4.612253003836044 -9.602592363336099 0.0
endloop
endfacet
facet normal 0.0 0.0 -1.0
outer loop
vertex 4.880441075753087 -9.491505226681369 0.0
vertex 4.841029550181066 -9.520734806151273 0.0
vertex 4.754586149853809 -9.566939766255643 0.0
endloop
endfacet
facet normal 0.0 0.0 -1.0
outer loop
vertex -5.063244433671264 9.105 0.0
vertex -4.063244433671264 8.605 0.0
vertex -4.063244433671264 -8.605 0.0
endloop
endfacet
facet normal 0.0 -0.0 -1.0
outer loop
vertex 4.754586149853809 -9.566939766255643 0.0
vertex 4.978979239822537 -9.382785116509801 0.0
vertex 4.916797824264538 -9.458553390593273 0.0
endloop
endfacet
facet normal 0.0 0.0 -1.0
outer loop
vertex 5.060836797007362 -9.15400857016478 0.0
vertex 4.978979239822537 -9.382785116509801 0.0
vertex 4.612253003836044 -9.602592363336099 0.0
endloop
endfacet
facet normal -0.0 0.0 -1.0
outer loop
vertex 4.949749660352633 -9.422196642081824 0.0
vertex 4.916797824264538 -9.458553390593273 0.0
vertex 4.978979239822537 -9.382785116509801 0.0
endloop
endfacet
facet normal -0.0 0.0 -1.0
outer loop
vertex 5.004205065845442 -9.340698368413 0.0
vertex 4.978979239822537 -9.382785116509801 0.0
vertex 5.025184199926907 -9.296341716182546 0.0
endloop
endfacet
facet normal 0.0 0.0 -0.9999999999999999
outer loop
vertex 5.0536370738728795 -9.202545161008064 0.0
vertex 5.041714601537369 -9.250142338627231 0.0
vertex 5.025184199926907 -9.296341716182546 0.0
endloop
endfacet
facet normal 0.0 0.0 -1.0
outer loop
vertex 5.063244433671264 -9.105 0.0
vertex 5.060836797007362 -9.15400857016478 0.0
vertex 4.563244433671264 -9.605 0.0
endloop
endfacet
facet normal -0.0 0.0 -1.0
outer loop
vertex 5.0536370738728795 -9.202545161008064 0.0
vertex 5.025184199926907 -9.296341716182546 0.0
vertex 5.060836797007362 -9.15400857016478 0.0
endloop
endfacet
facet normal -0.0 0.0 -1.0
outer loop
vertex 5.025184199926907 -9.296341716182546 0.0
vertex 4.978979239822537 -9.382785116509801 0.0
vertex 5.060836797007362 -9.15400857016478 0.0
endloop
endfacet
facet normal 0.0 0.0 -1.0
outer loop
vertex 4.916797824264538 -9.458553390593273 0.0
vertex 4.880441075753087 -9.491505226681369 0.0
vertex 4.754586149853809 -9.566939766255643 0.0
endloop
endfacet
facet normal -0.0 -0.0 -1.0
outer loop
vertex 5.063244433671264 9.105 0.0
vertex 5.063244433671264 -9.105 0.0
vertex 4.063244433671264 -8.605 0.0
endloop
endfacet
facet normal 0.0 0.0 -1.0
outer loop
vertex 4.063244433671264 8.605 0.0
vertex -4.063244433671264 8.605 0.0
vertex 4.563244433671264 9.605 0.0
endloop
endfacet
facet normal -0.0 -0.0 -1.0
outer loop
vertex 4.798942802084263 9.545960632174179 0.0
vertex 4.841029550181066 9.520734806151273 0.0
vertex 4.754586149853809 9.566939766255643 0.0
endloop
endfacet
facet normal 0.0 0.0 -1.0
outer loop
vertex 5.063244433671264 9.105 0.0
vertex 4.563244433671264 9.605 0.0
vertex 4.612253003836044 9.602592363336099 0.0
endloop
endfacet
facet normal -0.0 0.0 -1.0
outer loop
vertex 5.063244433671264 9.105 0.0
vertex 4.063244433671264 8.605 0.0
vertex 4.563244433671264 9.605 0.0
endloop
endfacet
facet normal 0.0 0.0 -1.0
outer loop
vertex 4.880441075753087 9.491505226681369 0.0
vertex 4.754586149853809 9.566939766255643 0.0
vertex 4.841029550181066 9.520734806151273 0.0
endloop
endfacet
facet normal -0.0 0.0 -1.0
outer loop
vertex 4.563244433671264 9.605 0.0
vertex -4.063244433671264 8.605 0.0
vertex -4.563244433671264 9.605 0.0
endloop
endfacet
facet normal -0.0 -0.0 -1.0
outer loop
vertex 4.660789594679328 9.595392640201617 0.0
vertex 4.708386772298495 9.583470167866105 0.0
vertex 4.612253003836044 9.602592363336099 0.0
endloop
endfacet
facet normal 0.0 0.0 -1.0
outer loop
vertex 4.612253003836044 9.602592363336099 0.0
vertex 4.754586149853809 9.566939766255643 0.0
vertex 4.978979239822537 9.382785116509801 0.0
endloop
endfacet
facet normal 0.0 0.0 -1.0
outer loop
vertex 4.754586149853809 9.566939766255643 0.0
vertex 4.612253003836044 9.602592363336099 0.0
vertex 4.708386772298495 9.583470167866105 0.0
endloop
endfacet
facet normal 0.0 0.0 -1.0
outer loop
vertex -4.063244433671264 8.605 0.0
vertex -5.063244433671264 9.105 0.0
vertex -4.563244433671264 9.605 0.0
endloop
endfacet
facet normal 0.0 0.0 -0.9999999999999999
outer loop
vertex 5.0536370738728795 9.202545161008064 0.0
vertex 5.025184199926907 9.296341716182546 0.0
vertex 5.041714601537369 9.250142338627231 0.0
endloop
endfacet
facet normal -0.0 -0.0 -1.0
outer loop
vertex 5.0536370738728795 9.202545161008064 0.0
vertex 5.060836797007362 9.15400857016478 0.0
vertex 5.025184199926907 9.296341716182546 0.0
endloop
endfacet
facet normal -0.0 -0.0 -1.0
outer loop
vertex 4.978979239822537 9.382785116509801 0.0
vertex 5.060836797007362 9.15400857016478 0.0
vertex 4.612253003836044 9.602592363336099 0.0
endloop
endfacet
facet normal 0.0 0.0 -1.0
outer loop
vertex 4.978979239822537 9.382785116509801 0.0
vertex 5.025184199926907 9.296341716182546 0.0
vertex 5.060836797007362 9.15400857016478 0.0
endloop
endfacet
facet normal -0.0 -0.0 -1.0
outer loop
vertex 4.880441075753087 9.491505226681369 0.0
vertex 4.916797824264538 9.458553390593273 0.0
vertex 4.754586149853809 9.566939766255643 0.0
endloop
endfacet
facet normal -0.0 -0.0 -1.0
outer loop
vertex 4.949749660352633 9.422196642081824 0.0
vertex 4.978979239822537 9.382785116509801 0.0
vertex 4.916797824264538 9.458553390593273 0.0
endloop
endfacet
facet normal 0.0 0.0 -1.0
outer loop
vertex 4.754586149853809 9.566939766255643 0.0
vertex 4.916797824264538 9.458553390593273 0.0
vertex 4.978979239822537 9.382785116509801 0.0
endloop
endfacet
facet normal 0.0 0.0 -0.9999999999999999
outer loop
vertex 4.978979239822537 9.382785116509801 0.0
vertex 5.004205065845442 9.340698368413 0.0
vertex 5.025184199926907 9.296341716182546 0.0
endloop
endfacet
facet normal 0.0 0.0 -1.0
outer loop
vertex 5.063244433671264 9.105 0.0
vertex 4.612253003836044 9.602592363336099 0.0
vertex 5.060836797007362 9.15400857016478 0.0
endloop
endfacet
facet normal -0.0 0.0 -1.0
outer loop
vertex 5.063244433671264 9.105 0.0
vertex 4.063244433671264 -8.605 0.0
vertex 4.063244433671264 8.605 0.0
endloop
endfacet
facet normal -0.0 0.0 -1.0
outer loop
vertex -4.063244433671264 -8.605 0.0
vertex -4.563244433671264 -9.605 0.0
vertex -5.063244433671264 -9.105 0.0
endloop
endfacet
facet normal 0.0 0.0 1.0
outer loop
vertex -4.969449179016204 -9.39563491599318 4.34
vertex -4.949749660352633 -9.422196642081824 4.34
vertex -4.931565128585499 -9.442260181075179 4.34
endloop
endfacet
facet normal -0.0 -0.0 1.0
outer loop
vertex -4.969449179016204 -9.39563491599318 4.34
vertex -4.931565128585499 -9.442260181075179 4.34
vertex -5.0476605524841816 -9.226404771840237 4.34
endloop
endfacet
facet normal -0.0 -0.0 1.0
outer loop
vertex -4.916797824264537 -9.458553390593275 4.34
vertex -4.896911414843845 -9.476577381473675 4.34
vertex -4.931565128585499 -9.442260181075179 4.34
endloop
endfacet
facet normal -0.0 -0.0 1.0
outer loop
vertex -4.931565128585499 -9.442260181075179 4.34
vertex -4.896911414843845 -9.476577381473675 4.34
vertex -5.0476605524841816 -9.226404771840237 4.34
endloop
endfacet
facet normal 0.0 0.0 1.0
outer loop
vertex -5.0476605524841816 -9.226404771840237 4.34
vertex -5.041714601537369 -9.250142338627231 4.34
vertex -5.025184199926908 -9.296341716182544 4.34
endloop
endfacet
facet normal 0.0 0.0 1.0
outer loop
vertex -5.004205065845441 -9.340698368413001 4.34
vertex -4.978979239822536 -9.382785116509803 4.34
vertex -4.969449179016204 -9.39563491599318 4.34
endloop
endfacet
facet normal -0.0 -0.0 0.9999999999999999
outer loop
vertex -5.004205065845441 -9.340698368413001 4.34
vertex -4.969449179016204 -9.39563491599318 4.34
vertex -5.025184199926908 -9.296341716182544 4.34
endloop
endfacet
facet normal -0.0 -0.0 1.0
outer loop
vertex -5.025184199926908 -9.296341716182544 4.34
vertex -4.969449179016204 -9.39563491599318 4.34
vertex -5.0476605524841816 -9.226404771840237 4.34
endloop
endfacet
facet normal 0.0 0.0 1.0
outer loop
vertex -4.896911414843845 -9.476577381473675 4.34
vertex -4.880441075753088 -9.491505226681369 4.34
vertex -4.828427994791616 -9.528287887780223 4.34
endloop
endfacet
facet normal 0.0 0.0 1.0
outer loop
vertex -4.75458614985381 -9.566939766255643 4.34
vertex -4.708386772298496 -9.583470167866105 4.34
vertex -4.702421869590453 -9.58496429821328 4.34
endloop
endfacet
facet normal 0.0 0.0 1.0
outer loop
vertex -4.765095686781865 -9.561969125477745 4.34
vertex -4.702421869590453 -9.58496429821328 4.34
vertex -4.615839827373206 -9.602060308324589 4.34
endloop
endfacet
facet normal 0.0 0.0 1.0
outer loop
vertex -4.615839827373206 -9.602060308324589 4.34
vertex -4.702421869590453 -9.58496429821328 4.34
vertex -4.660789594679328 -9.595392640201617 4.34
endloop
endfacet
facet normal 0.0 0.0 1.0
outer loop
vertex -5.0476605524841816 -9.226404771840237 4.34
vertex -4.765095686781865 -9.561969125477745 4.34
vertex -4.615839827373206 -9.602060308324589 4.34
endloop
endfacet
facet normal -0.0 -0.0 1.0
outer loop
vertex -4.896911414843845 -9.476577381473675 4.34
vertex -4.765095686781865 -9.561969125477745 4.34
vertex -5.0476605524841816 -9.226404771840237 4.34
endloop
endfacet
facet normal -0.0 -0.0 1.0
outer loop
vertex -4.75458614985381 -9.566939766255643 4.34
vertex -4.702421869590453 -9.58496429821328 4.34
vertex -4.765095686781865 -9.561969125477745 4.34
endloop
endfacet
facet normal 0.0 0.0 1.0
outer loop
vertex -4.765095686781865 -9.561969125477745 4.34
vertex -4.828427994791616 -9.528287887780223 4.34
vertex -4.798942802084262 -9.545960632174179 4.34
endloop
endfacet
facet normal -0.0 -0.0 0.9999999999999999
outer loop
vertex -4.828427994791616 -9.528287887780223 4.34
vertex -4.765095686781865 -9.561969125477745 4.34
vertex -4.896911414843845 -9.476577381473675 4.34
endloop
endfacet
facet normal -0.0 -0.0 1.0
outer loop
vertex -4.841029550181066 -9.520734806151273 4.34
vertex -4.828427994791616 -9.528287887780223 4.34
vertex -4.880441075753088 -9.491505226681369 4.34
endloop
endfacet
facet normal -0.0 -0.0 1.0
outer loop
vertex -4.615839827373206 -9.602060308324589 4.34
vertex -4.563244433671264 -9.605 4.34
vertex -5.0476605524841816 -9.226404771840237 4.34
endloop
endfacet
facet normal 0.0 -0.0 1.0
outer loop
vertex -5.063244433671264 9.105 4.34
vertex -4.612253003836044 9.602592363336099 4.34
vertex -5.060836797007362 9.15400857016478 4.34
endloop
endfacet
facet normal 0.0 0.0 1.0
outer loop
vertex -5.060836797007362 -9.154008570164782 4.34
vertex -5.0536370738728795 -9.202545161008066 4.34
vertex -5.0476605524841816 -9.226404771840237 4.34
endloop
endfacet
facet normal -0.0 -0.0 1.0
outer loop
vertex -5.060836797007362 -9.154008570164782 4.34
vertex -5.0476605524841816 -9.226404771840237 4.34
vertex -5.063244433671264 -9.105 4.34
endloop
endfacet
facet normal 0.0 -0.0 1.0
outer loop
vertex -5.063244433671264 9.105 4.34
vertex -4.563244433671264 9.605 4.34
vertex -4.612253003836044 9.602592363336099 4.34
endloop
endfacet
facet normal -0.0 0.0 1.0
outer loop
vertex -5.0536370738728795 9.202545161008064 4.34
vertex -5.060836797007362 9.15400857016478 4.34
vertex -5.025184199926907 9.296341716182546 4.34
endloop
endfacet
facet normal 0.0 -0.0 0.9999999999999999
outer loop
vertex -5.0536370738728795 9.202545161008064 4.34
vertex -5.025184199926907 9.296341716182546 4.34
vertex -5.041714601537369 9.250142338627231 4.34
endloop
endfacet
facet normal -0.0 0.0 1.0
outer loop
vertex -5.004205065845442 9.340698368413 4.34
vertex -5.025184199926907 9.296341716182546 4.34
vertex -4.978979239822537 9.382785116509801 4.34
endloop
endfacet
facet normal 0.0 0.0 1.0
outer loop
vertex -4.978979239822537 9.382785116509801 4.34
vertex -5.025184199926907 9.296341716182546 4.34
vertex -5.060836797007362 9.15400857016478 4.34
endloop
endfacet
facet normal 0.0 0.0 1.0
outer loop
vertex -5.063244433671264 -9.105 4.34
vertex -5.0476605524841816 -9.226404771840237 4.34
vertex -4.563244433671264 -9.605 4.34
endloop
endfacet
facet normal -0.0 0.0 1.0
outer loop
vertex -4.949749660352633 9.422196642081824 4.34
vertex -4.978979239822537 9.382785116509801 4.34
vertex -4.916797824264538 9.458553390593273 4.34
endloop
endfacet
facet normal 0.0 -0.0 1.0
outer loop
vertex -4.916797824264538 9.458553390593273 4.34
vertex -4.841029550181065 9.520734806151273 4.34
vertex -4.880441075753087 9.491505226681369 4.34
endloop
endfacet
facet normal 0.0 0.0 1.0
outer loop
vertex -4.841029550181065 9.520734806151273 4.34
vertex -4.916797824264538 9.458553390593273 4.34
vertex -4.978979239822537 9.382785116509801 4.34
endloop
endfacet
facet normal 0.0 -0.0 0.9999999999999999
outer loop
vertex -4.978979239822537 9.382785116509801 4.34
vertex -4.612253003836044 9.602592363336099 4.34
vertex -4.841029550181065 9.520734806151273 4.34
endloop
endfacet
facet normal -0.0 0.0 1.0
outer loop
vertex -4.798942802084263 9.545960632174179 4.34
vertex -4.841029550181065 9.520734806151273 4.34
vertex -4.754586149853809 9.566939766255643 4.34
endloop
endfacet
facet normal 0.0 -0.0 0.9999999999999999
outer loop
vertex -4.708386772298495 9.583470167866105 4.34
vertex -4.612253003836044 9.602592363336099 4.34
vertex -4.660789594679328 9.595392640201617 4.34
endloop
endfacet
facet normal 0.0 0.0 1.0
outer loop
vertex -4.612253003836044 9.602592363336099 4.34
vertex -4.708386772298495 9.583470167866105 4.34
vertex -4.754586149853809 9.566939766255643 4.34
endloop
endfacet
facet normal 0.0 -0.0 1.0
outer loop
vertex -4.841029550181065 9.520734806151273 4.34
vertex -4.612253003836044 9.602592363336099 4.34
vertex -4.754586149853809 9.566939766255643 4.34
endloop
endfacet
facet normal -0.0 0.0 1.0
outer loop
vertex -4.978979239822537 9.382785116509801 4.34
vertex -5.060836797007362 9.15400857016478 4.34
vertex -4.612253003836044 9.602592363336099 4.34
endloop
endfacet
facet normal -0.0 0.0 1.0
outer loop
vertex -5.063244433671264 9.105 4.34
vertex -5.063244433671264 -9.105 4.34
vertex -4.063244433671264 -8.605 4.34
endloop
endfacet
facet normal 0.0 0.0 1.0
outer loop
vertex -4.563244433671264 -9.605 4.34
vertex -4.615839827373206 -9.602060308324589 4.34
vertex -4.612253003836045 -9.602592363336099 4.34
endloop
endfacet
facet normal -0.0 0.0 1.0
outer loop
vertex 4.063244433671264 -8.605 4.34
vertex -4.563244433671264 -9.605 4.34
vertex 4.563244433671264 -9.605 4.34
endloop
endfacet
facet normal 0.0 0.0 0.9999999999999999
outer loop
vertex 4.612253003836044 -9.602592363336099 4.34
vertex 4.660789594679328 -9.595392640201617 4.34
vertex 4.708386772298495 -9.583470167866105 4.34
endloop
endfacet
facet normal -0.0 0.0 1.0
outer loop
vertex 5.060836797007362 -9.15400857016478 4.34
vertex 4.563244433671264 -9.605 4.34
vertex 4.612253003836044 -9.602592363336099 4.34
endloop
endfacet
facet normal 0.0 -0.0 1.0
outer loop
vertex 4.708386772298495 -9.583470167866105 4.34
vertex 4.754586149853809 -9.566939766255643 4.34
vertex 4.612253003836044 -9.602592363336099 4.34
endloop
endfacet
facet normal -0.0 0.0 1.0
outer loop
vertex -4.063244433671264 -8.605 4.34
vertex -4.563244433671264 -9.605 4.34
vertex 4.063244433671264 -8.605 4.34
endloop
endfacet
facet normal 0.0 0.0 1.0
outer loop
vertex 4.754586149853809 -9.566939766255643 4.34
vertex 4.798942802084263 -9.545960632174179 4.34
vertex 4.841029550181066 -9.520734806151273 4.34
endloop
endfacet
facet normal 0.0 -0.0 1.0
outer loop
vertex 4.563244433671264 -9.605 4.34
vertex 5.063244433671264 -9.105 4.34
vertex 4.063244433671264 -8.605 4.34
endloop
endfacet
facet normal 0.0 0.0 1.0
outer loop
vertex 4.612253003836044 -9.602592363336099 4.34
vertex 4.754586149853809 -9.566939766255643 4.34
vertex 4.978979239822537 -9.382785116509801 4.34
endloop
endfacet
facet normal 0.0 0.0 1.0
outer loop
vertex 4.754586149853809 -9.566939766255643 4.34
vertex 4.841029550181066 -9.520734806151273 4.34
vertex 4.880441075753087 -9.491505226681369 4.34
endloop
endfacet
facet normal 0.0 -0.0 1.0
outer loop
vertex -4.063244433671264 -8.605 4.34
vertex -4.063244433671264 8.605 4.34
vertex -5.063244433671264 9.105 4.34
endloop
endfacet
facet normal 0.0 -0.0 1.0
outer loop
vertex 4.916797824264538 -9.458553390593273 4.34
vertex 4.978979239822537 -9.382785116509801 4.34
vertex 4.754586149853809 -9.566939766255643 4.34
endloop
endfacet
facet normal 0.0 0.0 1.0
outer loop
vertex 4.612253003836044 -9.602592363336099 4.34
vertex 4.978979239822537 -9.382785116509801 4.34
vertex 5.060836797007362 -9.15400857016478 4.34
endloop
endfacet
facet normal -0.0 0.0 1.0
outer loop
vertex 4.978979239822537 -9.382785116509801 4.34
vertex 4.916797824264538 -9.458553390593273 4.34
vertex 4.949749660352633 -9.422196642081824 4.34
endloop
endfacet
facet normal -0.0 0.0 1.0
outer loop
vertex 5.025184199926907 -9.296341716182546 4.34
vertex 4.978979239822537 -9.382785116509801 4.34
vertex 5.004205065845442 -9.340698368413 4.34
endloop
endfacet
facet normal 0.0 0.0 0.9999999999999999
outer loop
vertex 5.025184199926907 -9.296341716182546 4.34
vertex 5.041714601537369 -9.250142338627231 4.34
vertex 5.0536370738728795 -9.202545161008064 4.34
endloop
endfacet
facet normal 0.0 0.0 1.0
outer loop
vertex 4.563244433671264 -9.605 4.34
vertex 5.060836797007362 -9.15400857016478 4.34
vertex 5.063244433671264 -9.105 4.34
endloop
endfacet
facet normal -0.0 0.0 1.0
outer loop
vertex 5.060836797007362 -9.15400857016478 4.34
vertex 5.025184199926907 -9.296341716182546 4.34
vertex 5.0536370738728795 -9.202545161008064 4.34
endloop
endfacet
facet normal -0.0 0.0 1.0
outer loop
vertex 5.060836797007362 -9.15400857016478 4.34
vertex 4.978979239822537 -9.382785116509801 4.34
vertex 5.025184199926907 -9.296341716182546 4.34
endloop
endfacet
facet normal 0.0 0.0 1.0
outer loop
vertex 4.754586149853809 -9.566939766255643 4.34
vertex 4.880441075753087 -9.491505226681369 4.34
vertex 4.916797824264538 -9.458553390593273 4.34
endloop
endfacet
facet normal -0.0 0.0 1.0
outer loop
vertex 4.063244433671264 -8.605 4.34
vertex 5.063244433671264 -9.105 4.34
vertex 5.063244433671264 9.105 4.34
endloop
endfacet
facet normal -0.0 0.0 1.0
outer loop
vertex 4.563244433671264 9.605 4.34
vertex -4.063244433671264 8.605 4.34
vertex 4.063244433671264 8.605 4.34
endloop
endfacet
facet normal -0.0 -0.0 1.0
outer loop
vertex 4.754586149853809 9.566939766255643 4.34
vertex 4.841029550181066 9.520734806151273 4.34
vertex 4.798942802084263 9.545960632174179 4.34
endloop
endfacet
facet normal 0.0 0.0 1.0
outer loop
vertex 4.612253003836044 9.602592363336099 4.34
vertex 4.563244433671264 9.605 4.34
vertex 5.063244433671264 9.105 4.34
endloop
endfacet
facet normal -0.0 0.0 1.0
outer loop
vertex 4.563244433671264 9.605 4.34
vertex 4.063244433671264 8.605 4.34
vertex 5.063244433671264 9.105 4.34
endloop
endfacet
facet normal 0.0 0.0 1.0
outer loop
vertex 4.841029550181066 9.520734806151273 4.34
vertex 4.754586149853809 9.566939766255643 4.34
vertex 4.880441075753087 9.491505226681369 4.34
endloop
endfacet
facet normal -0.0 0.0 1.0
outer loop
vertex -4.563244433671264 9.605 4.34
vertex -4.063244433671264 8.605 4.34
vertex 4.563244433671264 9.605 4.34
endloop
endfacet
facet normal -0.0 -0.0 1.0
outer loop
vertex 4.612253003836044 9.602592363336099 4.34
vertex 4.708386772298495 9.583470167866105 4.34
vertex 4.660789594679328 9.595392640201617 4.34
endloop
endfacet
facet normal 0.0 0.0 1.0
outer loop
vertex 4.978979239822537 9.382785116509801 4.34
vertex 4.754586149853809 9.566939766255643 4.34
vertex 4.612253003836044 9.602592363336099 4.34
endloop
endfacet
facet normal 0.0 0.0 1.0
outer loop
vertex 4.708386772298495 9.583470167866105 4.34
vertex 4.612253003836044 9.602592363336099 4.34
vertex 4.754586149853809 9.566939766255643 4.34
endloop
endfacet
facet normal 0.0 0.0 1.0
outer loop
vertex -4.563244433671264 9.605 4.34
vertex -5.063244433671264 9.105 4.34
vertex -4.063244433671264 8.605 4.34
endloop
endfacet
facet normal 0.0 0.0 0.9999999999999999
outer loop
vertex 5.041714601537369 9.250142338627231 4.34
vertex 5.025184199926907 9.296341716182546 4.34
vertex 5.0536370738728795 9.202545161008064 4.34
endloop
endfacet
facet normal -0.0 -0.0 1.0
outer loop
vertex 5.025184199926907 9.296341716182546 4.34
vertex 5.060836797007362 9.15400857016478 4.34
vertex 5.0536370738728795 9.202545161008064 4.34
endloop
endfacet
facet normal -0.0 -0.0 1.0
outer loop
vertex 4.612253003836044 9.602592363336099 4.34
vertex 5.060836797007362 9.15400857016478 4.34
vertex 4.978979239822537 9.382785116509801 4.34
endloop
endfacet
facet normal 0.0 0.0 1.0
outer loop
vertex 5.060836797007362 9.15400857016478 4.34
vertex 5.025184199926907 9.296341716182546 4.34
vertex 4.978979239822537 9.382785116509801 4.34
endloop
endfacet
facet normal -0.0 -0.0 1.0
outer loop
vertex 4.754586149853809 9.566939766255643 4.34
vertex 4.916797824264538 9.458553390593273 4.34
vertex 4.880441075753087 9.491505226681369 4.34
endloop
endfacet
facet normal -0.0 -0.0 1.0
outer loop
vertex 4.916797824264538 9.458553390593273 4.34
vertex 4.978979239822537 9.382785116509801 4.34
vertex 4.949749660352633 9.422196642081824 4.34
endloop
endfacet
facet normal 0.0 0.0 1.0
outer loop
vertex 4.978979239822537 9.382785116509801 4.34
vertex 4.916797824264538 9.458553390593273 4.34
vertex 4.754586149853809 9.566939766255643 4.34
endloop
endfacet
facet normal 0.0 0.0 0.9999999999999999
outer loop
vertex 5.025184199926907 9.296341716182546 4.34
vertex 5.004205065845442 9.340698368413 4.34
vertex 4.978979239822537 9.382785116509801 4.34
endloop
endfacet
facet normal 0.0 0.0 1.0
outer loop
vertex 5.060836797007362 9.15400857016478 4.34
vertex 4.612253003836044 9.602592363336099 4.34
vertex 5.063244433671264 9.105 4.34
endloop
endfacet
facet normal -0.0 0.0 1.0
outer loop
vertex 4.063244433671264 8.605 4.34
vertex 4.063244433671264 -8.605 4.34
vertex 5.063244433671264 9.105 4.34
endloop
endfacet
facet normal -0.0 0.0 1.0
outer loop
vertex -5.063244433671264 -9.105 4.34
vertex -4.563244433671264 -9.605 4.34
vertex -4.063244433671264 -8.605 4.34
endloop
endfacet
facet normal -1.0 0.0 -0.0
outer loop
vertex -5.063244433671264 -9.105 4.34
vertex -5.063244433671264 9.105 4.34
vertex -5.063244433671264 -9.105 0.0
endloop
endfacet
facet normal -1.0 0.0 0.0
outer loop
vertex -5.063244433671264 -9.105 0.0
vertex -5.063244433671264 9.105 4.34
vertex -5.063244433671264 9.105 0.0
endloop
endfacet
facet normal -0.9987954562051721 0.04906767432742466 0.0
outer loop
vertex -5.063244433671264 9.105 4.34
vertex -5.060836797007362 9.15400857016478 4.34
vertex -5.063244433671264 9.105 0.0
endloop
endfacet
facet normal -0.9987954562051721 0.04906767432742466 0.0
outer loop
vertex -5.063244433671264 9.105 0.0
vertex -5.060836797007362 9.15400857016478 4.34
vertex -5.060836797007362 9.15400857016478 0.0
endloop
endfacet
facet normal -0.989176509964782 0.14673047445535528 0.0
outer loop
vertex -5.060836797007362 9.15400857016478 4.34
vertex -5.0536370738728795 9.202545161008064 4.34
vertex -5.060836797007362 9.15400857016478 0.0
endloop
endfacet
facet normal -0.989176509964782 0.14673047445535528 0.0
outer loop
vertex -5.060836797007362 9.15400857016478 0.0
vertex -5.0536370738728795 9.202545161008064 4.34
vertex -5.0536370738728795 9.202545161008064 0.0
endloop
endfacet
facet normal -0.9700312531945455 0.24298017990325774 0.0
outer loop
vertex -5.0536370738728795 9.202545161008064 4.34
vertex -5.041714601537369 9.250142338627231 4.34
vertex -5.0536370738728795 9.202545161008064 0.0
endloop
endfacet
facet normal -0.9700312531945455 0.24298017990325774 0.0
outer loop
vertex -5.0536370738728795 9.202545161008064 0.0
vertex -5.041714601537369 9.250142338627231 4.34
vertex -5.041714601537369 9.250142338627231 0.0
endloop
endfacet
facet normal -0.9415440651830188 0.3368898533922256 0.0
outer loop
vertex -5.041714601537369 9.250142338627231 4.34
vertex -5.025184199926907 9.296341716182546 4.34
vertex -5.041714601537369 9.250142338627231 0.0
endloop
endfacet
facet normal -0.9415440651830188 0.3368898533922256 0.0
outer loop
vertex -5.041714601537369 9.250142338627231 0.0
vertex -5.025184199926907 9.296341716182546 4.34
vertex -5.025184199926907 9.296341716182546 0.0
endloop
endfacet
facet normal -0.9039892931234431 0.4275550934302824 0.0
outer loop
vertex -5.025184199926907 9.296341716182546 4.34
vertex -5.004205065845442 9.340698368413 4.34
vertex -5.025184199926907 9.296341716182546 0.0
endloop
endfacet
facet normal -0.9039892931234431 0.4275550934302824 0.0
outer loop
vertex -5.025184199926907 9.296341716182546 0.0
vertex -5.004205065845442 9.340698368413 4.34
vertex -5.004205065845442 9.340698368413 0.0
endloop
endfacet
facet normal -0.8577286100002678 0.514102744193229 0.0
outer loop
vertex -5.004205065845442 9.340698368413 4.34
vertex -4.978979239822537 9.382785116509801 4.34
vertex -5.004205065845442 9.340698368413 0.0
endloop
endfacet
facet normal -0.8577286100002678 0.514102744193229 0.0
outer loop
vertex -5.004205065845442 9.340698368413 0.0
vertex -4.978979239822537 9.382785116509801 4.34
vertex -4.978979239822537 9.382785116509801 0.0
endloop
endfacet
facet normal -0.8032075314806535 0.5956993044924217 0.0
outer loop
vertex -4.978979239822537 9.382785116509801 4.34
vertex -4.949749660352633 9.422196642081824 4.34
vertex -4.978979239822537 9.382785116509801 0.0
endloop
endfacet
facet normal -0.8032075314806535 0.5956993044924217 0.0
outer loop
vertex -4.978979239822537 9.382785116509801 0.0
vertex -4.949749660352633 9.422196642081824 4.34
vertex -4.949749660352633 9.422196642081824 0.0
endloop
endfacet
facet normal -0.74095112535495 0.6715589548470284 0.0
outer loop
vertex -4.949749660352633 9.422196642081824 4.34
vertex -4.916797824264538 9.458553390593273 4.34
vertex -4.949749660352633 9.422196642081824 0.0
endloop
endfacet
facet normal -0.74095112535495 0.6715589548470284 0.0
outer loop
vertex -4.949749660352633 9.422196642081824 0.0
vertex -4.916797824264538 9.458553390593273 4.34
vertex -4.916797824264538 9.458553390593273 0.0
endloop
endfacet
facet normal -0.6715589548470203 0.7409511253549573 0.0
outer loop
vertex -4.916797824264538 9.458553390593273 4.34
vertex -4.880441075753087 9.491505226681369 4.34
vertex -4.916797824264538 9.458553390593273 0.0
endloop
endfacet
facet normal -0.6715589548470203 0.7409511253549573 0.0
outer loop
vertex -4.916797824264538 9.458553390593273 0.0
vertex -4.880441075753087 9.491505226681369 4.34
vertex -4.880441075753087 9.491505226681369 0.0
endloop
endfacet
facet normal -0.5956993044924304 0.803207531480647 0.0
outer loop
vertex -4.880441075753087 9.491505226681369 4.34
vertex -4.841029550181065 9.520734806151273 4.34
vertex -4.880441075753087 9.491505226681369 0.0
endloop
endfacet
facet normal -0.5956993044924304 0.803207531480647 0.0
outer loop
vertex -4.880441075753087 9.491505226681369 0.0
vertex -4.841029550181065 9.520734806151273 4.34
vertex -4.841029550181065 9.520734806151273 0.0
endloop
endfacet
facet normal -0.5141027441932423 0.8577286100002598 0.0
outer loop
vertex -4.841029550181065 9.520734806151273 4.34
vertex -4.798942802084263 9.545960632174179 4.34
vertex -4.841029550181065 9.520734806151273 0.0
endloop
endfacet
facet normal -0.5141027441932423 0.8577286100002598 0.0
outer loop
vertex -4.841029550181065 9.520734806151273 0.0
vertex -4.798942802084263 9.545960632174179 4.34
vertex -4.798942802084263 9.545960632174179 0.0
endloop
endfacet
facet normal -0.4275550934302607 0.9039892931234534 0.0
outer loop
vertex -4.798942802084263 9.545960632174179 4.34
vertex -4.754586149853809 9.566939766255643 4.34
vertex -4.798942802084263 9.545960632174179 0.0
endloop
endfacet
facet normal -0.4275550934302607 0.9039892931234534 0.0
outer loop
vertex -4.798942802084263 9.545960632174179 0.0
vertex -4.754586149853809 9.566939766255643 4.34
vertex -4.754586149853809 9.566939766255643 0.0
endloop
endfacet
facet normal -0.3368898533922313 0.9415440651830167 0.0
outer loop
vertex -4.754586149853809 9.566939766255643 4.34
vertex -4.708386772298495 9.583470167866105 4.34
vertex -4.754586149853809 9.566939766255643 0.0
endloop
endfacet
facet normal -0.3368898533922313 0.9415440651830167 0.0
outer loop
vertex -4.754586149853809 9.566939766255643 0.0
vertex -4.708386772298495 9.583470167866105 4.34
vertex -4.708386772298495 9.583470167866105 0.0
endloop
endfacet
facet normal -0.24298017990327478 0.9700312531945413 0.0
outer loop
vertex -4.708386772298495 9.583470167866105 4.34
vertex -4.660789594679328 9.595392640201617 4.34
vertex -4.708386772298495 9.583470167866105 0.0
endloop
endfacet
facet normal -0.24298017990327478 0.9700312531945413 0.0
outer loop
vertex -4.708386772298495 9.583470167866105 0.0
vertex -4.660789594679328 9.595392640201617 4.34
vertex -4.660789594679328 9.595392640201617 0.0
endloop
endfacet
facet normal -0.14673047445533755 0.9891765099647845 0.0
outer loop
vertex -4.660789594679328 9.595392640201617 4.34
vertex -4.612253003836044 9.602592363336099 4.34
vertex -4.660789594679328 9.595392640201617 0.0
endloop
endfacet
facet normal -0.14673047445533755 0.9891765099647845 0.0
outer loop
vertex -4.660789594679328 9.595392640201617 0.0
vertex -4.612253003836044 9.602592363336099 4.34
vertex -4.612253003836044 9.602592363336099 0.0
endloop
endfacet
facet normal -0.04906767432742466 0.9987954562051721 0.0
outer loop
vertex -4.612253003836044 9.602592363336099 4.34
vertex -4.563244433671264 9.605 4.34
vertex -4.612253003836044 9.602592363336099 0.0
endloop
endfacet
facet normal -0.04906767432742466 0.9987954562051721 0.0
outer loop
vertex -4.612253003836044 9.602592363336099 0.0
vertex -4.563244433671264 9.605 4.34
vertex -4.563244433671264 9.605 0.0
endloop
endfacet
facet normal -0.0 1.0 0.0
outer loop
vertex -4.563244433671264 9.605 4.34
vertex 4.563244433671264 9.605 4.34
vertex -4.563244433671264 9.605 0.0
endloop
endfacet
facet normal -0.0 1.0 0.0
outer loop
vertex -4.563244433671264 9.605 0.0
vertex 4.563244433671264 9.605 4.34
vertex 4.563244433671264 9.605 0.0
endloop
endfacet
facet normal 0.04906767432742466 0.9987954562051721 0.0
outer loop
vertex 4.563244433671264 9.605 4.34
vertex 4.612253003836044 9.602592363336099 4.34
vertex 4.563244433671264 9.605 0.0
endloop
endfacet
facet normal 0.04906767432742466 0.9987954562051721 0.0
outer loop
vertex 4.563244433671264 9.605 0.0
vertex 4.612253003836044 9.602592363336099 4.34
vertex 4.612253003836044 9.602592363336099 0.0
endloop
endfacet
facet normal 0.14673047445533755 0.9891765099647845 0.0
outer loop
vertex 4.612253003836044 9.602592363336099 4.34
vertex 4.660789594679328 9.595392640201617 4.34
vertex 4.612253003836044 9.602592363336099 0.0
endloop
endfacet
facet normal 0.14673047445533755 0.9891765099647845 0.0
outer loop
vertex 4.612253003836044 9.602592363336099 0.0
vertex 4.660789594679328 9.595392640201617 4.34
vertex 4.660789594679328 9.595392640201617 0.0
endloop
endfacet
facet normal 0.24298017990327478 0.9700312531945413 0.0
outer loop
vertex 4.660789594679328 9.595392640201617 4.34
vertex 4.708386772298495 9.583470167866105 4.34
vertex 4.660789594679328 9.595392640201617 0.0
endloop
endfacet
facet normal 0.24298017990327478 0.9700312531945413 0.0
outer loop
vertex 4.660789594679328 9.595392640201617 0.0
vertex 4.708386772298495 9.583470167866105 4.34
vertex 4.708386772298495 9.583470167866105 0.0
endloop
endfacet
facet normal 0.3368898533922313 0.9415440651830167 0.0
outer loop
vertex 4.708386772298495 9.583470167866105 4.34
vertex 4.754586149853809 9.566939766255643 4.34
vertex 4.708386772298495 9.583470167866105 0.0
endloop
endfacet
facet normal 0.3368898533922313 0.9415440651830167 0.0
outer loop
vertex 4.708386772298495 9.583470167866105 0.0
vertex 4.754586149853809 9.566939766255643 4.34
vertex 4.754586149853809 9.566939766255643 0.0
endloop
endfacet
facet normal 0.4275550934302607 0.9039892931234534 0.0
outer loop
vertex 4.754586149853809 9.566939766255643 4.34
vertex 4.798942802084263 9.545960632174179 4.34
vertex 4.754586149853809 9.566939766255643 0.0
endloop
endfacet
facet normal 0.4275550934302607 0.9039892931234534 0.0
outer loop
vertex 4.754586149853809 9.566939766255643 0.0
vertex 4.798942802084263 9.545960632174179 4.34
vertex 4.798942802084263 9.545960632174179 0.0
endloop
endfacet
facet normal 0.5141027441932343 0.8577286100002646 0.0
outer loop
vertex 4.798942802084263 9.545960632174179 4.34
vertex 4.841029550181066 9.520734806151273 4.34
vertex 4.798942802084263 9.545960632174179 0.0
endloop
endfacet
facet normal 0.5141027441932343 0.8577286100002646 0.0
outer loop
vertex 4.798942802084263 9.545960632174179 0.0
vertex 4.841029550181066 9.520734806151273 4.34
vertex 4.841029550181066 9.520734806151273 0.0
endloop
endfacet
facet normal 0.595699304492439 0.8032075314806407 0.0
outer loop
vertex 4.841029550181066 9.520734806151273 4.34
vertex 4.880441075753087 9.491505226681369 4.34
vertex 4.841029550181066 9.520734806151273 0.0
endloop
endfacet
facet normal 0.595699304492439 0.8032075314806407 0.0
outer loop
vertex 4.841029550181066 9.520734806151273 0.0
vertex 4.880441075753087 9.491505226681369 4.34
vertex 4.880441075753087 9.491505226681369 0.0
endloop
endfacet
facet normal 0.6715589548470203 0.7409511253549573 0.0
outer loop
vertex 4.880441075753087 9.491505226681369 4.34
vertex 4.916797824264538 9.458553390593273 4.34
vertex 4.880441075753087 9.491505226681369 0.0
endloop
endfacet
facet normal 0.6715589548470203 0.7409511253549573 0.0
outer loop
vertex 4.880441075753087 9.491505226681369 0.0
vertex 4.916797824264538 9.458553390593273 4.34
vertex 4.916797824264538 9.458553390593273 0.0
endloop
endfacet
facet normal 0.74095112535495 0.6715589548470284 0.0
outer loop
vertex 4.916797824264538 9.458553390593273 4.34
vertex 4.949749660352633 9.422196642081824 4.34
vertex 4.916797824264538 9.458553390593273 0.0
endloop
endfacet
facet normal 0.74095112535495 0.6715589548470284 0.0
outer loop
vertex 4.916797824264538 9.458553390593273 0.0
vertex 4.949749660352633 9.422196642081824 4.34
vertex 4.949749660352633 9.422196642081824 0.0
endloop
endfacet
facet normal 0.8032075314806535 0.5956993044924217 0.0
outer loop
vertex 4.949749660352633 9.422196642081824 4.34
vertex 4.978979239822537 9.382785116509801 4.34
vertex 4.949749660352633 9.422196642081824 0.0
endloop
endfacet
facet normal 0.8032075314806535 0.5956993044924217 0.0
outer loop
vertex 4.949749660352633 9.422196642081824 0.0
vertex 4.978979239822537 9.382785116509801 4.34
vertex 4.978979239822537 9.382785116509801 0.0
endloop
endfacet
facet normal 0.8577286100002678 0.514102744193229 0.0
outer loop
vertex 4.978979239822537 9.382785116509801 4.34
vertex 5.004205065845442 9.340698368413 4.34
vertex 4.978979239822537 9.382785116509801 0.0
endloop
endfacet
facet normal 0.8577286100002678 0.514102744193229 0.0
outer loop
vertex 4.978979239822537 9.382785116509801 0.0
vertex 5.004205065845442 9.340698368413 4.34
vertex 5.004205065845442 9.340698368413 0.0
endloop
endfacet
facet normal 0.9039892931234431 0.4275550934302824 0.0
outer loop
vertex 5.004205065845442 9.340698368413 4.34
vertex 5.025184199926907 9.296341716182546 4.34
vertex 5.004205065845442 9.340698368413 0.0
endloop
endfacet
facet normal 0.9039892931234431 0.4275550934302824 0.0
outer loop
vertex 5.004205065845442 9.340698368413 0.0
vertex 5.025184199926907 9.296341716182546 4.34
vertex 5.025184199926907 9.296341716182546 0.0
endloop
endfacet
facet normal 0.9415440651830188 0.3368898533922256 0.0
outer loop
vertex 5.025184199926907 9.296341716182546 4.34
vertex 5.041714601537369 9.250142338627231 4.34
vertex 5.025184199926907 9.296341716182546 0.0
endloop
endfacet
facet normal 0.9415440651830188 0.3368898533922256 0.0
outer loop
vertex 5.025184199926907 9.296341716182546 0.0
vertex 5.041714601537369 9.250142338627231 4.34
vertex 5.041714601537369 9.250142338627231 0.0
endloop
endfacet
facet normal 0.9700312531945455 0.24298017990325774 0.0
outer loop
vertex 5.041714601537369 9.250142338627231 4.34
vertex 5.0536370738728795 9.202545161008064 4.34
vertex 5.041714601537369 9.250142338627231 0.0
endloop
endfacet
facet normal 0.9700312531945455 0.24298017990325774 0.0
outer loop
vertex 5.041714601537369 9.250142338627231 0.0
vertex 5.0536370738728795 9.202545161008064 4.34
vertex 5.0536370738728795 9.202545161008064 0.0
endloop
endfacet
facet normal 0.989176509964782 0.14673047445535528 0.0
outer loop
vertex 5.0536370738728795 9.202545161008064 4.34
vertex 5.060836797007362 9.15400857016478 4.34
vertex 5.0536370738728795 9.202545161008064 0.0
endloop
endfacet
facet normal 0.989176509964782 0.14673047445535528 0.0
outer loop
vertex 5.0536370738728795 9.202545161008064 0.0
vertex 5.060836797007362 9.15400857016478 4.34
vertex 5.060836797007362 9.15400857016478 0.0
endloop
endfacet
facet normal 0.9987954562051721 0.04906767432742466 0.0
outer loop
vertex 5.060836797007362 9.15400857016478 4.34
vertex 5.063244433671264 9.105 4.34
vertex 5.060836797007362 9.15400857016478 0.0
endloop
endfacet
facet normal 0.9987954562051721 0.04906767432742466 0.0
outer loop
vertex 5.060836797007362 9.15400857016478 0.0
vertex 5.063244433671264 9.105 4.34
vertex 5.063244433671264 9.105 0.0
endloop
endfacet
facet normal 1.0 0.0 0.0
outer loop
vertex 5.063244433671264 9.105 4.34
vertex 5.063244433671264 -9.105 4.34
vertex 5.063244433671264 9.105 0.0
endloop
endfacet
facet normal 1.0 0.0 0.0
outer loop
vertex 5.063244433671264 9.105 0.0
vertex 5.063244433671264 -9.105 4.34
vertex 5.063244433671264 -9.105 0.0
endloop
endfacet
facet normal 0.9987954562051721 -0.04906767432742466 0.0
outer loop
vertex 5.063244433671264 -9.105 4.34
vertex 5.060836797007362 -9.15400857016478 4.34
vertex 5.063244433671264 -9.105 0.0
endloop
endfacet
facet normal 0.9987954562051721 -0.04906767432742466 0.0
outer loop
vertex 5.063244433671264 -9.105 0.0
vertex 5.060836797007362 -9.15400857016478 4.34
vertex 5.060836797007362 -9.15400857016478 0.0
endloop
endfacet
facet normal 0.989176509964782 -0.14673047445535528 0.0
outer loop
vertex 5.060836797007362 -9.15400857016478 4.34
vertex 5.0536370738728795 -9.202545161008064 4.34
vertex 5.060836797007362 -9.15400857016478 0.0
endloop
endfacet
facet normal 0.989176509964782 -0.14673047445535528 0.0
outer loop
vertex 5.060836797007362 -9.15400857016478 0.0
vertex 5.0536370738728795 -9.202545161008064 4.34
vertex 5.0536370738728795 -9.202545161008064 0.0
endloop
endfacet
facet normal 0.9700312531945455 -0.24298017990325774 0.0
outer loop
vertex 5.0536370738728795 -9.202545161008064 4.34
vertex 5.041714601537369 -9.250142338627231 4.34
vertex 5.0536370738728795 -9.202545161008064 0.0
endloop
endfacet
facet normal 0.9700312531945455 -0.24298017990325774 0.0
outer loop
vertex 5.0536370738728795 -9.202545161008064 0.0
vertex 5.041714601537369 -9.250142338627231 4.34
vertex 5.041714601537369 -9.250142338627231 0.0
endloop
endfacet
facet normal 0.9415440651830188 -0.3368898533922256 0.0
outer loop
vertex 5.041714601537369 -9.250142338627231 4.34
vertex 5.025184199926907 -9.296341716182546 4.34
vertex 5.041714601537369 -9.250142338627231 0.0
endloop
endfacet
facet normal 0.9415440651830188 -0.3368898533922256 0.0
outer loop
vertex 5.041714601537369 -9.250142338627231 0.0
vertex 5.025184199926907 -9.296341716182546 4.34
vertex 5.025184199926907 -9.296341716182546 0.0
endloop
endfacet
facet normal 0.9039892931234431 -0.4275550934302824 0.0
outer loop
vertex 5.025184199926907 -9.296341716182546 4.34
vertex 5.004205065845442 -9.340698368413 4.34
vertex 5.025184199926907 -9.296341716182546 0.0
endloop
endfacet
facet normal 0.9039892931234431 -0.4275550934302824 0.0
outer loop
vertex 5.025184199926907 -9.296341716182546 0.0
vertex 5.004205065845442 -9.340698368413 4.34
vertex 5.004205065845442 -9.340698368413 0.0
endloop
endfacet
facet normal 0.8577286100002678 -0.514102744193229 0.0
outer loop
vertex 5.004205065845442 -9.340698368413 4.34
vertex 4.978979239822537 -9.382785116509801 4.34
vertex 5.004205065845442 -9.340698368413 0.0
endloop
endfacet
facet normal 0.8577286100002678 -0.514102744193229 0.0
outer loop
vertex 5.004205065845442 -9.340698368413 0.0
vertex 4.978979239822537 -9.382785116509801 4.34
vertex 4.978979239822537 -9.382785116509801 0.0
endloop
endfacet
facet normal 0.8032075314806535 -0.5956993044924217 0.0
outer loop
vertex 4.978979239822537 -9.382785116509801 4.34
vertex 4.949749660352633 -9.422196642081824 4.34
vertex 4.978979239822537 -9.382785116509801 0.0
endloop
endfacet
facet normal 0.8032075314806535 -0.5956993044924217 0.0
outer loop
vertex 4.978979239822537 -9.382785116509801 0.0
vertex 4.949749660352633 -9.422196642081824 4.34
vertex 4.949749660352633 -9.422196642081824 0.0
endloop
endfacet
facet normal 0.74095112535495 -0.6715589548470284 0.0
outer loop
vertex 4.949749660352633 -9.422196642081824 4.34
vertex 4.916797824264538 -9.458553390593273 4.34
vertex 4.949749660352633 -9.422196642081824 0.0
endloop
endfacet
facet normal 0.74095112535495 -0.6715589548470284 0.0
outer loop
vertex 4.949749660352633 -9.422196642081824 0.0
vertex 4.916797824264538 -9.458553390593273 4.34
vertex 4.916797824264538 -9.458553390593273 0.0
endloop
endfacet
facet normal 0.6715589548470203 -0.7409511253549573 0.0
outer loop
vertex 4.916797824264538 -9.458553390593273 4.34
vertex 4.880441075753087 -9.491505226681369 4.34
vertex 4.916797824264538 -9.458553390593273 0.0
endloop
endfacet
facet normal 0.6715589548470203 -0.7409511253549573 0.0
outer loop
vertex 4.916797824264538 -9.458553390593273 0.0
vertex 4.880441075753087 -9.491505226681369 4.34
vertex 4.880441075753087 -9.491505226681369 0.0
endloop
endfacet
facet normal 0.595699304492439 -0.8032075314806407 0.0
outer loop
vertex 4.880441075753087 -9.491505226681369 4.34
vertex 4.841029550181066 -9.520734806151273 4.34
vertex 4.880441075753087 -9.491505226681369 0.0
endloop
endfacet
facet normal 0.595699304492439 -0.8032075314806407 0.0
outer loop
vertex 4.880441075753087 -9.491505226681369 0.0
vertex 4.841029550181066 -9.520734806151273 4.34
vertex 4.841029550181066 -9.520734806151273 0.0
endloop
endfacet
facet normal 0.5141027441932343 -0.8577286100002646 0.0
outer loop
vertex 4.841029550181066 -9.520734806151273 4.34
vertex 4.798942802084263 -9.545960632174179 4.34
vertex 4.841029550181066 -9.520734806151273 0.0
endloop
endfacet
facet normal 0.5141027441932343 -0.8577286100002646 0.0
outer loop
vertex 4.841029550181066 -9.520734806151273 0.0
vertex 4.798942802084263 -9.545960632174179 4.34
vertex 4.798942802084263 -9.545960632174179 0.0
endloop
endfacet
facet normal 0.4275550934302607 -0.9039892931234534 0.0
outer loop
vertex 4.798942802084263 -9.545960632174179 4.34
vertex 4.754586149853809 -9.566939766255643 4.34
vertex 4.798942802084263 -9.545960632174179 0.0
endloop
endfacet
facet normal 0.4275550934302607 -0.9039892931234534 0.0
outer loop
vertex 4.798942802084263 -9.545960632174179 0.0
vertex 4.754586149853809 -9.566939766255643 4.34
vertex 4.754586149853809 -9.566939766255643 0.0
endloop
endfacet
facet normal 0.3368898533922313 -0.9415440651830167 0.0
outer loop
vertex 4.754586149853809 -9.566939766255643 4.34
vertex 4.708386772298495 -9.583470167866105 4.34
vertex 4.754586149853809 -9.566939766255643 0.0
endloop
endfacet
facet normal 0.3368898533922313 -0.9415440651830167 0.0
outer loop
vertex 4.754586149853809 -9.566939766255643 0.0
vertex 4.708386772298495 -9.583470167866105 4.34
vertex 4.708386772298495 -9.583470167866105 0.0
endloop
endfacet
facet normal 0.24298017990327478 -0.9700312531945413 0.0
outer loop
vertex 4.708386772298495 -9.583470167866105 4.34
vertex 4.660789594679328 -9.595392640201617 4.34
vertex 4.708386772298495 -9.583470167866105 0.0
endloop
endfacet
facet normal 0.24298017990327478 -0.9700312531945413 0.0
outer loop
vertex 4.708386772298495 -9.583470167866105 0.0
vertex 4.660789594679328 -9.595392640201617 4.34
vertex 4.660789594679328 -9.595392640201617 0.0
endloop
endfacet
facet normal 0.14673047445533755 -0.9891765099647845 0.0
outer loop
vertex 4.660789594679328 -9.595392640201617 4.34
vertex 4.612253003836044 -9.602592363336099 4.34
vertex 4.660789594679328 -9.595392640201617 0.0
endloop
endfacet
facet normal 0.14673047445533755 -0.9891765099647845 0.0
outer loop
vertex 4.660789594679328 -9.595392640201617 0.0
vertex 4.612253003836044 -9.602592363336099 4.34
vertex 4.612253003836044 -9.602592363336099 0.0
endloop
endfacet
facet normal 0.04906767432742466 -0.9987954562051721 0.0
outer loop
vertex 4.612253003836044 -9.602592363336099 4.34
vertex 4.563244433671264 -9.605 4.34
vertex 4.612253003836044 -9.602592363336099 0.0
endloop
endfacet
facet normal 0.04906767432742466 -0.9987954562051721 0.0
outer loop
vertex 4.612253003836044 -9.602592363336099 0.0
vertex 4.563244433671264 -9.605 4.34
vertex 4.563244433671264 -9.605 0.0
endloop
endfacet
facet normal -0.0 -1.0 -0.0
outer loop
vertex 4.563244433671264 -9.605 4.34
vertex -4.563244433671264 -9.605 4.34
vertex 4.563244433671264 -9.605 0.0
endloop
endfacet
facet normal -0.0 -1.0 -0.0
outer loop
vertex 4.563244433671264 -9.605 0.0
vertex -4.563244433671264 -9.605 4.34
vertex -4.563244433671264 -9.605 0.0
endloop
endfacet
facet normal -0.04906767432742377 -0.9987954562051721 0.0
outer loop
vertex -4.563244433671264 -9.605 4.34
vertex -4.612253003836045 -9.602592363336099 4.34
vertex -4.563244433671264 -9.605 0.0
endloop
endfacet
facet normal -0.04906767432742377 -0.9987954562051721 -0.0
outer loop
vertex -4.563244433671264 -9.605 0.0
vertex -4.612253003836045 -9.602592363336099 4.34
vertex -4.612253003836045 -9.602592363336099 0.0
endloop
endfacet
facet normal -0.14673047445516463 -0.9891765099648101 0.0
outer loop
vertex -4.612253003836045 -9.602592363336099 4.34
vertex -4.615839827373206 -9.602060308324589 4.34
vertex -4.612253003836045 -9.602592363336099 0.0
endloop
endfacet
facet normal -0.14673047445516463 -0.9891765099648101 -0.0
outer loop
vertex -4.612253003836045 -9.602592363336099 0.0
vertex -4.615839827373206 -9.602060308324589 4.34
vertex -4.615839827373206 -9.602060308324589 0.0
endloop
endfacet
facet normal -0.1467304744553542 -0.9891765099647822 0.0
outer loop
vertex -4.615839827373206 -9.602060308324589 4.34
vertex -4.660789594679328 -9.595392640201617 4.34
vertex -4.615839827373206 -9.602060308324589 0.0
endloop
endfacet
facet normal -0.1467304744553542 -0.9891765099647822 -0.0
outer loop
vertex -4.615839827373206 -9.602060308324589 0.0
vertex -4.660789594679328 -9.595392640201617 4.34
vertex -4.660789594679328 -9.595392640201617 0.0
endloop
endfacet
facet normal -0.24298017990328338 -0.970031253194539 0.0
outer loop
vertex -4.660789594679328 -9.595392640201617 4.34
vertex -4.702421869590453 -9.58496429821328 4.34
vertex -4.660789594679328 -9.595392640201617 0.0
endloop
endfacet
facet normal -0.24298017990328338 -0.970031253194539 -0.0
outer loop
vertex -4.660789594679328 -9.595392640201617 0.0
vertex -4.702421869590453 -9.58496429821328 4.34
vertex -4.702421869590453 -9.58496429821328 0.0
endloop
endfacet
facet normal -0.2429801799031808 -0.9700312531945648 0.0
outer loop
vertex -4.702421869590453 -9.58496429821328 4.34
vertex -4.708386772298496 -9.583470167866105 4.34
vertex -4.702421869590453 -9.58496429821328 0.0
endloop
endfacet
facet normal -0.2429801799031808 -0.9700312531945648 -0.0
outer loop
vertex -4.702421869590453 -9.58496429821328 0.0
vertex -4.708386772298496 -9.583470167866105 4.34
vertex -4.708386772298496 -9.583470167866105 0.0
endloop
endfacet
facet normal -0.3368898533922313 -0.9415440651830167 0.0
outer loop
vertex -4.708386772298496 -9.583470167866105 4.34
vertex -4.75458614985381 -9.566939766255643 4.34
vertex -4.708386772298496 -9.583470167866105 0.0
endloop
endfacet
facet normal -0.3368898533922313 -0.9415440651830167 -0.0
outer loop
vertex -4.708386772298496 -9.583470167866105 0.0
vertex -4.75458614985381 -9.566939766255643 4.34
vertex -4.75458614985381 -9.566939766255643 0.0
endloop
endfacet
facet normal -0.42755509343024384 -0.9039892931234614 0.0
outer loop
vertex -4.75458614985381 -9.566939766255643 4.34
vertex -4.765095686781865 -9.561969125477745 4.34
vertex -4.75458614985381 -9.566939766255643 0.0
endloop
endfacet
facet normal -0.42755509343024384 -0.9039892931234614 -0.0
outer loop
vertex -4.75458614985381 -9.566939766255643 0.0
vertex -4.765095686781865 -9.561969125477745 4.34
vertex -4.765095686781865 -9.561969125477745 0.0
endloop
endfacet
facet normal -0.42755509343028425 -0.9039892931234422 0.0
outer loop
vertex -4.765095686781865 -9.561969125477745 4.34
vertex -4.798942802084262 -9.545960632174179 4.34
vertex -4.765095686781865 -9.561969125477745 0.0
endloop
endfacet
facet normal -0.42755509343028425 -0.9039892931234422 -0.0
outer loop
vertex -4.765095686781865 -9.561969125477745 0.0
vertex -4.798942802084262 -9.545960632174179 4.34
vertex -4.798942802084262 -9.545960632174179 0.0
endloop
endfacet
facet normal -0.5141027441932517 -0.8577286100002541 0.0
outer loop
vertex -4.798942802084262 -9.545960632174179 4.34
vertex -4.828427994791616 -9.528287887780223 4.34
vertex -4.798942802084262 -9.545960632174179 0.0
endloop
endfacet
facet normal -0.5141027441932517 -0.8577286100002541 -0.0
outer loop
vertex -4.798942802084262 -9.545960632174179 0.0
vertex -4.828427994791616 -9.528287887780223 4.34
vertex -4.828427994791616 -9.528287887780223 0.0
endloop
endfacet
facet normal -0.5141027441931669 -0.857728610000305 0.0
outer loop
vertex -4.828427994791616 -9.528287887780223 4.34
vertex -4.841029550181066 -9.520734806151273 4.34
vertex -4.828427994791616 -9.528287887780223 0.0
endloop
endfacet
facet normal -0.5141027441931669 -0.857728610000305 -0.0
outer loop
vertex -4.828427994791616 -9.528287887780223 0.0
vertex -4.841029550181066 -9.520734806151273 4.34
vertex -4.841029550181066 -9.520734806151273 0.0
endloop
endfacet
facet normal -0.5956993044924304 -0.803207531480647 0.0
outer loop
vertex -4.841029550181066 -9.520734806151273 4.34
vertex -4.880441075753088 -9.491505226681369 4.34
vertex -4.841029550181066 -9.520734806151273 0.0
endloop
endfacet
facet normal -0.5956993044924304 -0.803207531480647 -0.0
outer loop
vertex -4.841029550181066 -9.520734806151273 0.0
vertex -4.880441075753088 -9.491505226681369 4.34
vertex -4.880441075753088 -9.491505226681369 0.0
endloop
endfacet
facet normal -0.6715589548470425 -0.7409511253549373 0.0
outer loop
vertex -4.880441075753088 -9.491505226681369 4.34
vertex -4.896911414843845 -9.476577381473675 4.34
vertex -4.880441075753088 -9.491505226681369 0.0
endloop
endfacet
facet normal -0.6715589548470425 -0.7409511253549373 -0.0
outer loop
vertex -4.880441075753088 -9.491505226681369 0.0
vertex -4.896911414843845 -9.476577381473675 4.34
vertex -4.896911414843845 -9.476577381473675 0.0
endloop
endfacet
facet normal -0.6715589548469987 -0.740951125354977 0.0
outer loop
vertex -4.896911414843845 -9.476577381473675 4.34
vertex -4.916797824264537 -9.458553390593275 4.34
vertex -4.896911414843845 -9.476577381473675 0.0
endloop
endfacet
facet normal -0.6715589548469987 -0.740951125354977 -0.0
outer loop
vertex -4.896911414843845 -9.476577381473675 0.0
vertex -4.916797824264537 -9.458553390593275 4.34
vertex -4.916797824264537 -9.458553390593275 0.0
endloop
endfacet
facet normal -0.7409511253549845 -0.6715589548469901 0.0
outer loop
vertex -4.916797824264537 -9.458553390593275 4.34
vertex -4.931565128585499 -9.442260181075179 4.34
vertex -4.916797824264537 -9.458553390593275 0.0
endloop
endfacet
facet normal -0.7409511253549845 -0.6715589548469901 -0.0
outer loop
vertex -4.916797824264537 -9.458553390593275 0.0
vertex -4.931565128585499 -9.442260181075179 4.34
vertex -4.931565128585499 -9.442260181075179 0.0
endloop
endfacet
facet normal -0.740951125354935 -0.6715589548470448 0.0
outer loop
vertex -4.931565128585499 -9.442260181075179 4.34
vertex -4.949749660352633 -9.422196642081824 4.34
vertex -4.931565128585499 -9.442260181075179 0.0
endloop
endfacet
facet normal -0.740951125354935 -0.6715589548470448 -0.0
outer loop
vertex -4.931565128585499 -9.442260181075179 0.0
vertex -4.949749660352633 -9.422196642081824 4.34
vertex -4.949749660352633 -9.422196642081824 0.0
endloop
endfacet
facet normal -0.8032075314806505 -0.5956993044924258 0.0
outer loop
vertex -4.949749660352633 -9.422196642081824 4.34
vertex -4.969449179016204 -9.39563491599318 4.34
vertex -4.949749660352633 -9.422196642081824 0.0
endloop
endfacet
facet normal -0.8032075314806505 -0.5956993044924258 -0.0
outer loop
vertex -4.949749660352633 -9.422196642081824 0.0
vertex -4.969449179016204 -9.39563491599318 4.34
vertex -4.969449179016204 -9.39563491599318 0.0
endloop
endfacet
facet normal -0.8032075314806469 -0.5956993044924306 0.0
outer loop
vertex -4.969449179016204 -9.39563491599318 4.34
vertex -4.978979239822536 -9.382785116509803 4.34
vertex -4.969449179016204 -9.39563491599318 0.0
endloop
endfacet
facet normal -0.8032075314806469 -0.5956993044924306 -0.0
outer loop
vertex -4.969449179016204 -9.39563491599318 0.0
vertex -4.978979239822536 -9.382785116509803 4.34
vertex -4.978979239822536 -9.382785116509803 0.0
endloop
endfacet
facet normal -0.8577286100002678 -0.514102744193229 0.0
outer loop
vertex -4.978979239822536 -9.382785116509803 4.34
vertex -5.004205065845441 -9.340698368413001 4.34
vertex -4.978979239822536 -9.382785116509803 0.0
endloop
endfacet
facet normal -0.8577286100002678 -0.514102744193229 -0.0
outer loop
vertex -4.978979239822536 -9.382785116509803 0.0
vertex -5.004205065845441 -9.340698368413001 4.34
vertex -5.004205065845441 -9.340698368413001 0.0
endloop
endfacet
facet normal -0.9039892931234425 -0.42755509343028414 0.0
outer loop
vertex -5.004205065845441 -9.340698368413001 4.34
vertex -5.025184199926908 -9.296341716182544 4.34
vertex -5.004205065845441 -9.340698368413001 0.0
endloop
endfacet
facet normal -0.9039892931234425 -0.42755509343028414 -0.0
outer loop
vertex -5.004205065845441 -9.340698368413001 0.0
vertex -5.025184199926908 -9.296341716182544 4.34
vertex -5.025184199926908 -9.296341716182544 0.0
endloop
endfacet
facet normal -0.9415440651830204 -0.336889853392221 0.0
outer loop
vertex -5.025184199926908 -9.296341716182544 4.34
vertex -5.041714601537369 -9.250142338627231 4.34
vertex -5.025184199926908 -9.296341716182544 0.0
endloop
endfacet
facet normal -0.9415440651830204 -0.336889853392221 -0.0
outer loop
vertex -5.025184199926908 -9.296341716182544 0.0
vertex -5.041714601537369 -9.250142338627231 4.34
vertex -5.041714601537369 -9.250142338627231 0.0
endloop
endfacet
facet normal -0.9700312531945433 -0.24298017990326684 0.0
outer loop
vertex -5.041714601537369 -9.250142338627231 4.34
vertex -5.0476605524841816 -9.226404771840237 4.34
vertex -5.041714601537369 -9.250142338627231 0.0
endloop
endfacet
facet normal -0.9700312531945433 -0.24298017990326684 -0.0
outer loop
vertex -5.041714601537369 -9.250142338627231 0.0
vertex -5.0476605524841816 -9.226404771840237 4.34
vertex -5.0476605524841816 -9.226404771840237 0.0
endloop
endfacet
facet normal -0.9700312531945434 -0.24298017990326573 0.0
outer loop
vertex -5.0476605524841816 -9.226404771840237 4.34
vertex -5.0536370738728795 -9.202545161008066 4.34
vertex -5.0476605524841816 -9.226404771840237 0.0
endloop
endfacet
facet normal -0.9700312531945434 -0.24298017990326573 -0.0
outer loop
vertex -5.0476605524841816 -9.226404771840237 0.0
vertex -5.0536370738728795 -9.202545161008066 4.34
vertex -5.0536370738728795 -9.202545161008066 0.0
endloop
endfacet
facet normal -0.9987954562051722 -0.049067674327422886 0.0
outer loop
vertex -5.060836797007362 -9.154008570164782 4.34
vertex -5.063244433671264 -9.105 4.34
vertex -5.060836797007362 -9.154008570164782 0.0
endloop
endfacet
facet normal -0.9987954562051722 -0.049067674327422886 -0.0
outer loop
vertex -5.060836797007362 -9.154008570164782 0.0
vertex -5.063244433671264 -9.105 4.34
vertex -5.063244433671264 -9.105 0.0
endloop
endfacet
facet normal -0.989176509964782 -0.14673047445535528 0.0
outer loop
vertex -5.0536370738728795 -9.202545161008066 4.34
vertex -5.060836797007362 -9.154008570164782 4.34
vertex -5.0536370738728795 -9.202545161008066 0.0
endloop
endfacet
facet normal -0.989176509964782 -0.14673047445535528 -0.0
outer loop
vertex -5.0536370738728795 -9.202545161008066 0.0
vertex -5.060836797007362 -9.154008570164782 4.34
vertex -5.060836797007362 -9.154008570164782 0.0
endloop
endfacet
facet normal -0.0 1.0 0.0
outer loop
vertex -4.063244433671264 -8.605 4.34
vertex 4.063244433671264 -8.605 4.34
vertex -4.063244433671264 -8.605 0.0
endloop
endfacet
facet normal -0.0 1.0 0.0
outer loop
vertex -4.063244433671264 -8.605 0.0
vertex 4.063244433671264 -8.605 4.34
vertex 4.063244433671264 -8.605 0.0
endloop
endfacet
facet normal -1.0 0.0 -0.0
outer loop
vertex 4.063244433671264 -8.605 4.34
vertex 4.063244433671264 8.605 4.34
vertex 4.063244433671264 -8.605 0.0
endloop
endfacet
facet normal -1.0 0.0 0.0
outer loop
vertex 4.063244433671264 -8.605 0.0
vertex 4.063244433671264 8.605 4.34
vertex 4.063244433671264 8.605 0.0
endloop
endfacet
facet normal 1.0 0.0 0.0
outer loop
vertex -4.063244433671264 8.605 4.34
vertex -4.063244433671264 -8.605 4.34
vertex -4.063244433671264 8.605 0.0
endloop
endfacet
facet normal 1.0 0.0 0.0
outer loop
vertex -4.063244433671264 8.605 0.0
vertex -4.063244433671264 -8.605 4.34
vertex -4.063244433671264 -8.605 0.0
endloop
endfacet
facet normal -0.0 -1.0 -0.0
outer loop
vertex 4.063244433671264 8.605 4.34
vertex -4.063244433671264 8.605 4.34
vertex 4.063244433671264 8.605 0.0
endloop
endfacet
facet normal -0.0 -1.0 -0.0
outer loop
vertex 4.063244433671264 8.605 0.0
vertex -4.063244433671264 8.605 4.34
vertex -4.063244433671264 8.605 0.0
endloop
endfacet
endsolid